<svg xmlns="http://www.w3.org/2000/svg" xmlns:xlink="http://www.w3.org/1999/xlink" width="80" zoomAndPan="magnify" viewBox="0 0 60 74.999997" height="100" preserveAspectRatio="xMidYMid meet" version="1.0"><defs><clipPath id="94fd51d36e"><path d="M 18 28.378906 L 42 28.378906 L 42 46.378906 L 18 46.378906 Z M 18 28.378906 " clip-rule="nonzero"/></clipPath><clipPath id="089319eaa8"><path d="M 30 41 L 36 41 L 36 46.378906 L 30 46.378906 Z M 30 41 " clip-rule="nonzero"/></clipPath></defs><g clip-path="url(#94fd51d36e)"><path fill="#000105" d="M 25.746094 41.632812 C 25.757812 41.671875 25.777344 41.707031 25.800781 41.742188 C 26.640625 42.8125 27.851562 43.40625 29.222656 43.574219 C 29.289062 43.582031 29.324219 43.617188 29.328125 43.679688 L 29.453125 44.917969 C 29.460938 45.011719 29.496094 45.09375 29.5625 45.164062 L 30.074219 45.734375 C 30.097656 45.757812 30.105469 45.785156 30.105469 45.816406 L 30.105469 46.292969 C 30.105469 46.339844 30.082031 46.363281 30.035156 46.363281 L 26.574219 46.367188 C 26.523438 46.367188 26.496094 46.339844 26.492188 46.292969 C 26.363281 44.882812 25.949219 43.160156 24.828125 42.214844 C 24.769531 42.164062 24.726562 42.175781 24.695312 42.242188 L 24.265625 43.160156 C 24.222656 43.253906 24.160156 43.332031 24.078125 43.398438 L 22.003906 45.121094 C 21.957031 45.160156 21.957031 45.199219 21.996094 45.242188 C 22.175781 45.4375 22.359375 45.632812 22.542969 45.828125 C 22.664062 45.957031 22.640625 46.144531 22.648438 46.308594 C 22.652344 46.347656 22.632812 46.371094 22.589844 46.371094 L 18.65625 46.375 C 18.59375 46.375 18.542969 46.347656 18.507812 46.292969 L 18.03125 45.53125 C 18.007812 45.496094 18.003906 45.460938 18.015625 45.425781 L 19.027344 42.089844 C 19.046875 42.023438 19.085938 41.976562 19.152344 41.949219 L 20.105469 41.53125 C 20.175781 41.5 20.21875 41.449219 20.238281 41.375 C 20.425781 40.632812 20.628906 39.851562 20.851562 39.035156 C 20.875 38.945312 20.941406 38.8125 21.050781 38.644531 C 21.972656 37.222656 23.039062 35.851562 24.339844 34.710938 C 24.597656 34.488281 24.808594 34.347656 25.160156 34.285156 C 25.824219 34.167969 26.351562 34.125 26.742188 34.15625 C 27.242188 34.195312 27.789062 34.277344 28.386719 34.402344 C 28.882812 34.507812 29.332031 34.414062 29.734375 34.125 C 30.496094 33.574219 31.164062 32.917969 31.808594 32.210938 C 31.910156 32.101562 32.035156 32.019531 32.1875 31.957031 C 32.902344 31.675781 33.660156 31.457031 34.453125 31.300781 C 34.519531 31.285156 34.570312 31.253906 34.605469 31.199219 C 35.167969 30.34375 35.777344 29.515625 36.570312 28.894531 C 36.878906 28.648438 37.34375 28.382812 37.753906 28.484375 C 38.273438 28.613281 38.789062 28.753906 39.304688 28.910156 C 39.515625 28.972656 39.886719 29.101562 39.878906 29.371094 C 39.871094 29.605469 39.828125 30.035156 40.027344 30.203125 C 40.164062 30.324219 40.265625 30.457031 40.332031 30.597656 C 40.433594 30.820312 40.488281 31.046875 40.660156 31.242188 C 40.839844 31.441406 41.007812 31.652344 41.167969 31.878906 C 41.214844 31.9375 41.226562 32.007812 41.207031 32.078125 C 41.160156 32.242188 41.113281 32.417969 41.066406 32.601562 C 41.039062 32.699219 40.957031 32.726562 40.867188 32.722656 C 40.8125 32.71875 40.78125 32.742188 40.777344 32.792969 C 40.765625 32.863281 40.78125 32.925781 40.824219 32.976562 C 40.847656 33.011719 40.878906 33.03125 40.917969 33.042969 C 41.125 33.105469 41.210938 33.242188 41.175781 33.457031 C 41.167969 33.503906 41.179688 33.550781 41.207031 33.589844 C 41.324219 33.773438 41.445312 33.945312 41.566406 34.117188 C 41.644531 34.21875 41.6875 34.339844 41.699219 34.476562 C 41.703125 34.515625 41.714844 34.554688 41.742188 34.585938 C 41.761719 34.617188 41.789062 34.644531 41.820312 34.667969 C 41.960938 34.789062 42 34.980469 41.917969 35.148438 C 41.84375 35.308594 41.644531 35.285156 41.53125 35.433594 C 41.183594 35.859375 40.859375 36.269531 40.546875 36.667969 C 40.515625 36.710938 40.484375 36.710938 40.445312 36.671875 L 39.101562 35.214844 C 39.09375 35.203125 39.085938 35.199219 39.070312 35.203125 C 39.058594 35.203125 39.054688 35.210938 39.054688 35.222656 L 39.125 38.894531 C 39.125 38.925781 39.132812 38.949219 39.15625 38.972656 C 39.929688 39.898438 40.121094 41.070312 40.265625 42.265625 C 40.355469 43.035156 40.4375 43.976562 40.507812 45.085938 C 40.519531 45.257812 40.53125 45.390625 40.441406 45.546875 C 40.300781 45.800781 40.164062 46.054688 40.03125 46.308594 C 40.011719 46.347656 39.980469 46.367188 39.933594 46.367188 L 36.007812 46.367188 C 35.980469 46.367188 35.96875 46.355469 35.96875 46.328125 C 35.960938 46.085938 36.023438 45.882812 36.1875 45.691406 C 36.335938 45.507812 36.472656 45.328125 36.589844 45.148438 C 36.613281 45.117188 36.613281 45.082031 36.59375 45.046875 C 36.292969 44.539062 36.019531 44.074219 35.785156 43.652344 C 35.726562 43.546875 35.683594 43.40625 35.65625 43.230469 C 35.542969 42.464844 35.417969 41.699219 35.28125 40.9375 C 35.273438 40.886719 35.25 40.84375 35.214844 40.8125 C 34.550781 40.195312 33.890625 39.46875 33.238281 38.632812 C 33.226562 38.617188 33.210938 38.609375 33.191406 38.601562 C 33.144531 38.585938 33.125 38.601562 33.140625 38.652344 C 33.417969 39.480469 33.851562 40.226562 34.445312 40.890625 C 34.453125 40.902344 34.457031 40.914062 34.449219 40.929688 C 34.445312 40.941406 34.433594 40.949219 34.417969 40.949219 L 33.097656 41.066406 C 33.050781 41.070312 33.011719 41.089844 32.980469 41.128906 C 32.203125 42.1875 31.113281 43.085938 29.773438 43.140625 C 28.371094 43.199219 26.96875 42.417969 25.8125 41.585938 C 25.75 41.539062 25.726562 41.554688 25.746094 41.632812 Z M 38.074219 30.035156 C 37.90625 29.746094 37.972656 29.597656 38.269531 29.46875 C 38.5625 29.34375 38.898438 29.28125 39.277344 29.285156 C 39.296875 29.285156 39.308594 29.277344 39.320312 29.257812 C 39.328125 29.242188 39.324219 29.222656 39.3125 29.210938 C 39.292969 29.1875 39.265625 29.171875 39.238281 29.164062 C 38.867188 29.046875 38.492188 28.949219 38.109375 28.867188 C 37.894531 28.820312 37.695312 28.839844 37.5 28.949219 C 36.824219 29.324219 36.269531 29.859375 35.835938 30.554688 C 35.78125 30.644531 35.804688 30.671875 35.902344 30.632812 C 36.511719 30.402344 37.324219 30.148438 38.003906 30.160156 C 38.035156 30.160156 38.058594 30.144531 38.074219 30.117188 C 38.089844 30.089844 38.089844 30.0625 38.074219 30.035156 Z M 39.402344 32.171875 L 40.796875 32.371094 C 40.851562 32.378906 40.882812 32.355469 40.894531 32.304688 L 40.949219 32.039062 C 40.957031 31.992188 40.9375 31.960938 40.890625 31.949219 L 39.316406 31.582031 C 39.277344 31.574219 39.246094 31.585938 39.226562 31.621094 C 39.09375 31.855469 39.023438 32.09375 39.011719 32.335938 C 39.011719 32.378906 39.023438 32.414062 39.046875 32.445312 C 39.070312 32.472656 39.085938 32.46875 39.101562 32.4375 C 39.140625 32.34375 39.203125 32.261719 39.285156 32.199219 C 39.320312 32.175781 39.359375 32.164062 39.402344 32.171875 Z M 35.789062 33.910156 C 35.8125 33.867188 35.835938 33.867188 35.867188 33.902344 L 36.917969 35.191406 C 36.960938 35.246094 37 35.242188 37.027344 35.175781 L 37.1875 34.820312 C 37.195312 34.796875 37.214844 34.785156 37.242188 34.78125 C 37.265625 34.78125 37.285156 34.789062 37.300781 34.808594 C 37.75 35.441406 38.09375 36.167969 38.328125 36.988281 C 38.371094 37.132812 38.414062 37.269531 38.460938 37.398438 C 38.496094 37.503906 38.523438 37.503906 38.535156 37.390625 C 38.699219 36.015625 38.59375 34.570312 38.074219 33.285156 C 37.929688 32.921875 37.316406 31.867188 36.863281 31.972656 C 35.875 32.199219 35.015625 32.621094 34.292969 33.230469 C 34.230469 33.277344 34.222656 33.335938 34.269531 33.398438 L 35.238281 34.773438 C 35.261719 34.804688 35.28125 34.804688 35.304688 34.769531 Z M 30.039062 36.429688 C 30.140625 36.542969 30.191406 36.695312 30.265625 36.824219 C 30.425781 37.105469 30.59375 37.390625 30.769531 37.675781 C 30.78125 37.695312 30.800781 37.707031 30.820312 37.703125 C 30.84375 37.703125 30.859375 37.691406 30.871094 37.667969 L 31.785156 35.398438 C 31.808594 35.339844 31.851562 35.3125 31.910156 35.308594 L 32.625 35.304688 C 32.65625 35.304688 32.671875 35.289062 32.671875 35.261719 C 32.648438 34.175781 32.988281 33.273438 33.527344 32.332031 C 33.550781 32.289062 33.539062 32.265625 33.492188 32.257812 C 33.460938 32.253906 33.433594 32.257812 33.40625 32.261719 C 32.925781 32.367188 32.464844 32.488281 32.019531 32.621094 C 31.972656 32.636719 31.9375 32.660156 31.914062 32.699219 C 31.460938 33.328125 30.929688 33.902344 30.324219 34.425781 C 30.023438 34.683594 29.742188 34.9375 29.382812 35.125 C 29.332031 35.15625 29.277344 35.164062 29.21875 35.152344 C 28.503906 35.015625 27.742188 34.898438 26.925781 34.808594 C 26.414062 34.75 25.039062 34.671875 24.746094 35.160156 C 24.097656 36.246094 23.523438 37.273438 23.019531 38.242188 C 22.910156 38.449219 22.945312 38.476562 23.125 38.324219 C 23.949219 37.621094 24.90625 37.054688 25.992188 36.625 C 26.027344 36.609375 26.070312 36.605469 26.113281 36.605469 C 26.15625 36.609375 26.203125 36.621094 26.246094 36.640625 C 27.507812 37.234375 28.835938 37.890625 30.230469 38.605469 C 30.242188 38.609375 30.253906 38.613281 30.265625 38.609375 C 30.296875 38.597656 30.3125 38.582031 30.308594 38.566406 C 30.128906 37.953125 30.015625 37.25 29.96875 36.457031 C 29.964844 36.378906 29.988281 36.371094 30.039062 36.429688 Z M 39.929688 33.03125 C 40.003906 33.101562 40.085938 33.089844 40.171875 33 C 40.257812 32.910156 40.261719 32.828125 40.1875 32.761719 C 40.109375 32.691406 40.03125 32.703125 39.945312 32.792969 C 39.859375 32.882812 39.855469 32.960938 39.929688 33.03125 Z M 40.652344 34.082031 L 40.636719 34.59375 C 40.636719 34.621094 40.648438 34.640625 40.671875 34.65625 C 40.695312 34.671875 40.722656 34.667969 40.746094 34.652344 C 40.933594 34.53125 41.140625 34.464844 41.363281 34.457031 C 41.402344 34.453125 41.433594 34.4375 41.453125 34.402344 C 41.472656 34.367188 41.472656 34.332031 41.453125 34.296875 L 41.113281 33.660156 C 41.097656 33.636719 41.078125 33.621094 41.046875 33.625 C 41.007812 33.625 40.96875 33.632812 40.933594 33.644531 C 40.90625 33.65625 40.878906 33.652344 40.851562 33.636719 C 40.832031 33.625 40.816406 33.613281 40.808594 33.59375 C 40.792969 33.570312 40.792969 33.542969 40.808594 33.515625 L 40.957031 33.273438 C 40.996094 33.210938 40.976562 33.179688 40.902344 33.183594 L 39.777344 33.195312 C 39.738281 33.195312 39.714844 33.214844 39.710938 33.25 L 39.65625 33.785156 C 39.648438 33.832031 39.671875 33.859375 39.722656 33.867188 L 40.574219 33.988281 C 40.628906 33.996094 40.652344 34.027344 40.652344 34.082031 Z M 40.816406 35.152344 L 41.675781 35.152344 C 41.734375 35.152344 41.765625 35.121094 41.765625 35.066406 L 41.765625 34.980469 C 41.765625 34.910156 41.71875 34.851562 41.625 34.804688 C 41.535156 34.753906 41.425781 34.730469 41.292969 34.730469 L 41.199219 34.730469 C 41.066406 34.730469 40.957031 34.753906 40.863281 34.804688 C 40.773438 34.855469 40.726562 34.914062 40.726562 34.984375 L 40.726562 35.066406 C 40.726562 35.125 40.757812 35.152344 40.816406 35.152344 Z M 39.589844 45.117188 L 39.945312 45.277344 C 40 45.300781 40.023438 45.285156 40.023438 45.226562 C 39.953125 43.914062 39.769531 42.613281 39.476562 41.320312 C 39.320312 40.652344 39.09375 40.035156 38.796875 39.46875 C 38.78125 39.4375 38.757812 39.410156 38.730469 39.390625 C 38.722656 39.386719 38.710938 39.386719 38.703125 39.390625 C 38.695312 39.394531 38.691406 39.402344 38.691406 39.410156 L 38.699219 44.570312 C 38.699219 44.640625 38.726562 44.699219 38.78125 44.746094 C 39.007812 44.933594 38.921875 45.175781 38.9375 45.421875 C 38.941406 45.46875 38.960938 45.480469 39 45.453125 L 39.523438 45.121094 C 39.546875 45.109375 39.566406 45.109375 39.589844 45.117188 Z M 20.363281 43.375 L 20.492188 43.46875 C 20.535156 43.5 20.558594 43.492188 20.570312 43.441406 L 20.894531 41.601562 C 20.898438 41.582031 20.890625 41.566406 20.875 41.554688 C 20.859375 41.542969 20.84375 41.539062 20.824219 41.550781 L 19.332031 42.234375 C 19.273438 42.261719 19.234375 42.308594 19.214844 42.371094 L 18.523438 44.761719 C 18.464844 44.972656 18.515625 45.003906 18.679688 44.859375 C 19.027344 44.550781 19.4375 44.324219 19.90625 44.183594 C 19.964844 44.167969 20.003906 44.132812 20.023438 44.074219 L 20.273438 43.402344 C 20.289062 43.355469 20.320312 43.34375 20.363281 43.375 Z M 20.363281 43.375 " fill-opacity="1" fill-rule="nonzero"/></g><g clip-path="url(#089319eaa8)"><path fill="#000105" d="M 33.980469 46.375 C 33.074219 46.375 32.15625 46.375 31.226562 46.378906 C 31.160156 46.378906 31.113281 46.347656 31.085938 46.289062 L 30.738281 45.574219 C 30.714844 45.53125 30.726562 45.496094 30.765625 45.46875 L 31.699219 44.828125 C 31.742188 44.796875 31.761719 44.753906 31.753906 44.699219 L 31.546875 43.230469 C 31.539062 43.195312 31.554688 43.171875 31.585938 43.160156 C 32.34375 42.828125 32.933594 42.289062 33.351562 41.539062 C 33.382812 41.480469 33.433594 41.449219 33.5 41.449219 L 34.808594 41.421875 C 34.871094 41.421875 34.910156 41.453125 34.921875 41.515625 C 34.980469 41.878906 35.039062 42.253906 35.101562 42.632812 C 35.128906 42.785156 35.125 42.9375 35.089844 43.089844 C 34.816406 44.277344 34.519531 45.324219 34.207031 46.21875 C 34.167969 46.324219 34.09375 46.375 33.980469 46.375 Z M 33.980469 46.375 " fill-opacity="1" fill-rule="nonzero"/></g></svg>