<svg xmlns="http://www.w3.org/2000/svg" xmlns:xlink="http://www.w3.org/1999/xlink" width="80" zoomAndPan="magnify" viewBox="0 0 60 74.999997" height="100" preserveAspectRatio="xMidYMid meet" version="1.0"><defs><clipPath id="b34ef0a3e8"><path d="M 18 25.5 L 42 25.5 L 42 49.5 L 18 49.5 Z M 18 25.5 " clip-rule="nonzero"/></clipPath></defs><g clip-path="url(#b34ef0a3e8)"><path fill="#000000" d="M 17.996094 25.679688 L 17.996094 49.226562 C 17.996094 49.351562 18.097656 49.453125 18.222656 49.453125 L 41.769531 49.453125 C 41.894531 49.453125 41.996094 49.351562 41.996094 49.226562 L 41.996094 48.125 C 41.996094 48 41.894531 47.898438 41.769531 47.898438 L 40.480469 47.898438 L 40.480469 47.113281 C 40.480469 46.988281 40.378906 46.886719 40.253906 46.886719 C 40.128906 46.886719 40.027344 46.988281 40.027344 47.113281 L 40.027344 47.898438 L 35.148438 47.898438 L 35.148438 47.113281 C 35.148438 46.988281 35.046875 46.886719 34.921875 46.886719 C 34.796875 46.886719 34.695312 46.988281 34.695312 47.113281 L 34.695312 47.898438 L 29.8125 47.898438 L 29.8125 47.113281 C 29.8125 46.988281 29.710938 46.886719 29.585938 46.886719 C 29.460938 46.886719 29.359375 46.988281 29.359375 47.113281 L 29.359375 47.898438 L 24.480469 47.898438 L 24.480469 47.113281 C 24.480469 46.988281 24.378906 46.886719 24.253906 46.886719 C 24.128906 46.886719 24.027344 46.988281 24.027344 47.113281 L 24.027344 47.898438 L 19.550781 47.898438 L 19.550781 43.015625 L 20.339844 43.015625 C 20.464844 43.015625 20.566406 42.914062 20.566406 42.789062 C 20.566406 42.664062 20.464844 42.5625 20.339844 42.5625 L 19.550781 42.5625 L 19.550781 37.683594 L 20.339844 37.683594 C 20.464844 37.683594 20.566406 37.582031 20.566406 37.457031 C 20.566406 37.332031 20.464844 37.230469 20.339844 37.230469 L 19.550781 37.230469 L 19.550781 32.347656 L 20.339844 32.347656 C 20.464844 32.347656 20.566406 32.246094 20.566406 32.121094 C 20.566406 31.996094 20.464844 31.894531 20.339844 31.894531 L 19.550781 31.894531 L 19.550781 27.015625 L 20.339844 27.015625 C 20.464844 27.015625 20.566406 26.914062 20.566406 26.789062 C 20.566406 26.664062 20.464844 26.5625 20.339844 26.5625 L 19.550781 26.5625 L 19.550781 25.679688 C 19.550781 25.554688 19.449219 25.453125 19.324219 25.453125 L 18.222656 25.453125 C 18.097656 25.453125 17.996094 25.554688 17.996094 25.679688 Z M 19.351562 48.351562 C 19.34375 48.351562 19.335938 48.351562 19.324219 48.351562 L 18.449219 48.351562 L 18.449219 49 C 18.449219 49 41.542969 49 41.542969 49 C 41.542969 49 41.542969 48.351562 41.542969 48.351562 Z M 19.097656 47.898438 L 18.449219 47.898438 C 18.449219 47.683594 18.449219 25.90625 18.449219 25.90625 L 19.097656 25.90625 Z M 39.800781 29.773438 L 39.828125 29.667969 C 38.035156 36.800781 34.804688 40.589844 31.566406 42.5625 C 26.734375 45.5 21.894531 44.390625 21.894531 44.390625 C 21.773438 44.359375 21.652344 44.4375 21.625 44.558594 C 21.59375 44.679688 21.671875 44.800781 21.792969 44.832031 C 21.792969 44.832031 26.800781 45.988281 31.800781 42.949219 C 35.097656 40.941406 38.402344 37.109375 40.238281 29.886719 C 40.5 30.335938 40.988281 31.183594 40.988281 31.183594 C 41.050781 31.292969 41.1875 31.328125 41.296875 31.265625 C 41.40625 31.203125 41.441406 31.066406 41.378906 30.957031 L 40.359375 29.191406 C 40.296875 29.082031 40.160156 29.042969 40.050781 29.105469 L 38.28125 30.128906 C 38.175781 30.191406 38.136719 30.328125 38.199219 30.4375 C 38.261719 30.546875 38.402344 30.582031 38.507812 30.519531 Z M 39.800781 29.773438 " fill-opacity="1" fill-rule="evenodd"/></g></svg>