<svg xmlns="http://www.w3.org/2000/svg" xmlns:xlink="http://www.w3.org/1999/xlink" width="80" zoomAndPan="magnify" viewBox="0 0 60 74.999997" height="100" preserveAspectRatio="xMidYMid meet" version="1.0"><defs><clipPath id="81c8a68c0a"><path d="M 18 27.285156 L 29 27.285156 L 29 47.535156 L 18 47.535156 Z M 18 27.285156 " clip-rule="nonzero"/></clipPath><clipPath id="4334eaaec8"><path d="M 31 27.285156 L 42 27.285156 L 42 47.535156 L 31 47.535156 Z M 31 27.285156 " clip-rule="nonzero"/></clipPath></defs><path fill="#000000" d="M 28.335938 42.289062 C 28.511719 42.34375 28.664062 42.488281 28.726562 42.65625 C 28.789062 42.824219 28.757812 42.96875 28.667969 43.058594 L 28.339844 43.398438 C 28.253906 43.492188 28.105469 43.53125 27.933594 43.480469 C 27.757812 43.425781 27.601562 43.277344 27.539062 43.113281 C 27.515625 43.046875 27.511719 42.988281 27.511719 42.929688 L 28.148438 42.273438 C 28.210938 42.253906 28.277344 42.285156 28.335938 42.289062 Z M 27.433594 40.890625 C 27.640625 40.933594 27.820312 41.121094 27.890625 41.316406 C 27.960938 41.515625 27.921875 41.699219 27.808594 41.816406 L 27.183594 42.46875 C 27.066406 42.585938 26.882812 42.636719 26.675781 42.574219 C 26.46875 42.515625 26.289062 42.347656 26.214844 42.144531 C 26.144531 41.949219 26.1875 41.761719 26.300781 41.644531 L 26.925781 40.996094 C 27.085938 40.832031 27.242188 40.851562 27.433594 40.890625 Z M 26.097656 39.695312 C 26.347656 39.742188 26.53125 39.914062 26.601562 40.113281 C 26.671875 40.3125 26.632812 40.496094 26.519531 40.613281 L 25.890625 41.261719 C 25.777344 41.378906 25.59375 41.429688 25.386719 41.371094 C 25.179688 41.308594 25 41.136719 24.929688 40.941406 C 24.855469 40.742188 24.894531 40.558594 25.007812 40.4375 L 25.632812 39.792969 C 25.71875 39.699219 25.847656 39.648438 26.097656 39.695312 Z M 24.851562 38.476562 C 25.066406 38.53125 25.242188 38.707031 25.3125 38.902344 C 25.382812 39.105469 25.34375 39.285156 25.226562 39.40625 L 24.605469 40.054688 C 24.488281 40.171875 24.304688 40.222656 24.097656 40.164062 C 23.890625 40.101562 23.707031 39.933594 23.636719 39.734375 C 23.566406 39.535156 23.605469 39.351562 23.71875 39.230469 L 24.382812 38.542969 C 24.554688 38.433594 24.683594 38.433594 24.851562 38.476562 Z M 33.328125 34.265625 L 36.199219 37.953125 C 35.722656 38.484375 35.171875 38.773438 34.628906 38.996094 L 31.90625 36.890625 C 31.519531 36.59375 30.984375 36.066406 30.242188 36.160156 L 29.15625 36.296875 C 28.585938 36.371094 28.199219 36.300781 27.964844 36.125 C 27.730469 35.945312 27.65625 35.710938 27.785156 35.597656 C 27.914062 35.488281 28.179688 35.546875 28.484375 35.4375 L 30.425781 34.753906 C 30.792969 34.621094 31.371094 34.597656 31.949219 34.554688 C 32.433594 34.515625 32.925781 34.472656 33.328125 34.265625 Z M 29.363281 33.886719 C 29.808594 33.863281 30.160156 33.988281 30.5 34.152344 C 30.410156 34.175781 30.320312 34.199219 30.234375 34.230469 L 28.367188 34.890625 C 28.082031 34.933594 27.875 34.949219 27.679688 35.007812 C 27.480469 35.066406 27.285156 35.226562 27.199219 35.4375 C 27.042969 35.839844 27.246094 36.28125 27.625 36.566406 C 28.003906 36.855469 28.585938 37 29.285156 36.839844 L 30.308594 36.710938 C 30.734375 36.65625 31.128906 36.996094 31.542969 37.320312 L 34.550781 39.640625 C 34.679688 39.742188 34.75 39.917969 34.707031 40.125 C 34.667969 40.332031 34.511719 40.523438 34.316406 40.617188 C 34.121094 40.707031 33.929688 40.683594 33.800781 40.582031 L 32.277344 39.40625 C 32.226562 39.363281 32.160156 39.34375 32.097656 39.34375 C 31.828125 39.351562 31.71875 39.683594 31.933594 39.84375 L 32.984375 40.660156 C 33.117188 40.761719 33.183594 40.9375 33.144531 41.140625 C 33.101562 41.351562 32.949219 41.542969 32.753906 41.632812 C 32.554688 41.722656 32.367188 41.699219 32.234375 41.597656 L 31.179688 40.785156 C 31.128906 40.742188 31.0625 40.722656 30.996094 40.722656 C 30.730469 40.730469 30.621094 41.066406 30.835938 41.222656 L 31.558594 41.785156 C 31.691406 41.886719 31.757812 42.058594 31.71875 42.265625 C 31.675781 42.472656 31.523438 42.667969 31.324219 42.757812 C 31.140625 42.84375 30.953125 42.824219 30.824219 42.734375 L 30.082031 42.164062 C 30.03125 42.121094 29.964844 42.101562 29.898438 42.101562 C 29.632812 42.109375 29.523438 42.445312 29.738281 42.605469 L 30.386719 43.105469 C 30.394531 43.15625 30.398438 43.21875 30.382812 43.285156 C 30.347656 43.460938 30.214844 43.628906 30.050781 43.703125 C 29.886719 43.78125 29.738281 43.761719 29.636719 43.683594 L 29.167969 43.324219 C 29.335938 43.078125 29.359375 42.757812 29.253906 42.464844 C 29.117188 42.074219 28.789062 41.828125 28.457031 41.746094 C 28.503906 41.546875 28.492188 41.335938 28.421875 41.132812 C 28.285156 40.757812 27.976562 40.464844 27.589844 40.355469 C 27.460938 40.316406 27.324219 40.300781 27.195312 40.3125 C 27.195312 40.183594 27.175781 40.050781 27.128906 39.925781 C 26.996094 39.550781 26.683594 39.261719 26.300781 39.148438 C 26.171875 39.109375 26.035156 39.097656 25.90625 39.105469 C 25.90625 38.976562 25.886719 38.84375 25.84375 38.71875 C 25.707031 38.34375 25.394531 38.054688 25.007812 37.941406 C 24.660156 37.839844 24.285156 37.90625 24.015625 38.128906 C 23.964844 38.058594 23.90625 37.984375 23.832031 37.914062 L 26.730469 34.273438 C 27.09375 34.277344 27.476562 34.195312 27.785156 34.136719 C 28.324219 34.035156 28.941406 33.910156 29.363281 33.886719 Z M 25.9375 33.71875 L 26.257812 33.96875 L 23.402344 37.5625 L 23.074219 37.308594 C 22.671875 37 22.574219 36.792969 22.589844 36.566406 C 22.601562 36.34375 22.777344 36.023438 23.113281 35.605469 L 24.257812 34.164062 C 24.589844 33.742188 24.867188 33.5 25.148438 33.453125 C 25.429688 33.402344 25.632812 33.484375 25.9375 33.71875 Z M 34.910156 33.449219 C 35.191406 33.5 35.460938 33.75 35.789062 34.171875 L 36.917969 35.628906 C 37.246094 36.050781 37.414062 36.375 37.425781 36.597656 C 37.4375 36.820312 37.335938 37.027344 36.929688 37.332031 L 36.613281 37.574219 L 33.792969 33.953125 L 34.117188 33.707031 C 34.421875 33.476562 34.628906 33.398438 34.910156 33.449219 Z M 33.777344 33.261719 L 33.222656 33.683594 C 32.972656 33.871094 32.46875 33.957031 31.90625 34 C 31.777344 34.007812 31.648438 34.019531 31.515625 34.027344 C 30.96875 33.785156 30.324219 33.277344 29.332031 33.328125 C 28.832031 33.355469 28.210938 33.488281 27.679688 33.589844 C 27.394531 33.648438 27.109375 33.695312 26.839844 33.714844 C 26.652344 33.570312 26.464844 33.425781 26.28125 33.28125 C 25.804688 32.910156 25.34375 32.769531 24.917969 32.898438 C 24.492188 33.03125 24.171875 33.371094 23.816406 33.816406 L 22.667969 35.257812 C 22.316406 35.703125 22.054688 36.09375 22.027344 36.535156 C 22 36.964844 22.246094 37.371094 22.710938 37.734375 L 23.3125 38.199219 C 23.460938 38.320312 23.550781 38.425781 23.617188 38.535156 L 23.3125 38.847656 C 23.042969 39.128906 22.972656 39.546875 23.109375 39.921875 C 23.242188 40.292969 23.550781 40.585938 23.9375 40.699219 C 24.066406 40.734375 24.199219 40.75 24.332031 40.742188 C 24.332031 40.871094 24.351562 41 24.398438 41.125 C 24.53125 41.5 24.84375 41.789062 25.226562 41.902344 C 25.359375 41.941406 25.492188 41.953125 25.621094 41.945312 C 25.621094 42.074219 25.640625 42.207031 25.6875 42.332031 C 25.820312 42.707031 26.128906 43 26.515625 43.109375 C 26.664062 43.15625 26.820312 43.167969 26.96875 43.152344 C 26.980469 43.203125 26.992188 43.253906 27.011719 43.304688 C 27.136719 43.644531 27.417969 43.90625 27.765625 44.011719 C 28.101562 44.113281 28.472656 44.050781 28.714844 43.8125 L 28.792969 43.738281 L 29.34375 44.160156 C 29.609375 44.359375 29.984375 44.359375 30.292969 44.207031 C 30.691406 44.011719 30.902344 43.664062 30.941406 43.359375 C 31.328125 43.410156 31.640625 43.265625 31.914062 43.019531 C 32.148438 42.804688 32.257812 42.527344 32.289062 42.21875 C 32.710938 42.308594 33.085938 42.144531 33.382812 41.851562 C 33.597656 41.648438 33.671875 41.386719 33.707031 41.160156 C 33.972656 41.261719 34.28125 41.246094 34.554688 41.121094 C 34.917969 40.953125 35.183594 40.621094 35.257812 40.230469 C 35.316406 39.9375 35.257812 39.632812 35.085938 39.398438 C 35.644531 39.148438 36.25 38.796875 36.753906 38.167969 L 37.269531 37.78125 C 37.75 37.417969 38.007812 37.011719 37.988281 36.570312 C 37.964844 36.132812 37.710938 35.738281 37.363281 35.289062 L 36.234375 33.832031 C 35.886719 33.382812 35.558594 32.957031 35.019531 32.859375 C 34.480469 32.765625 34.140625 32.992188 33.777344 33.261719 Z M 33.777344 33.261719 " fill-opacity="1" fill-rule="nonzero"/><g clip-path="url(#81c8a68c0a)"><path fill="#000000" d="M 26.84375 46 C 26.511719 46.523438 26.0625 46.867188 25.527344 46.929688 C 25.007812 46.988281 24.40625 46.75 23.796875 46.28125 C 24.347656 46.027344 24.855469 45.761719 25.40625 45.699219 C 25.960938 45.636719 26.355469 45.75 26.84375 46 Z M 22.210938 43.351562 C 22.78125 43.410156 23.199219 43.667969 23.679688 44.214844 C 23.179688 44.582031 22.632812 44.738281 22.113281 44.597656 C 21.605469 44.460938 21.136719 44.019531 20.75 43.359375 C 21.203125 43.335938 21.636719 43.292969 22.210938 43.351562 Z M 19.039062 39.453125 C 19.613281 39.660156 20.15625 39.824219 20.511719 40.050781 C 20.890625 40.292969 21.175781 40.695312 21.398438 41.382812 C 20.792969 41.523438 20.226562 41.453125 19.804688 41.125 C 19.394531 40.804688 19.136719 40.214844 19.039062 39.453125 Z M 18.867188 35.21875 C 19.320312 35.617188 19.769531 35.972656 20.011719 36.3125 C 20.273438 36.675781 20.386719 37.152344 20.335938 37.875 C 19.71875 37.78125 19.222656 37.511719 18.953125 37.046875 C 18.695312 36.597656 18.671875 35.957031 18.867188 35.21875 Z M 20.449219 31.15625 C 20.6875 31.710938 20.9375 32.222656 21.011719 32.628906 C 21.09375 33.070312 20.988281 33.550781 20.632812 34.179688 C 20.113281 33.839844 19.78125 33.382812 19.738281 32.847656 C 19.695312 32.332031 19.953125 31.742188 20.449219 31.15625 Z M 23.148438 28.078125 C 23.226562 28.675781 23.28125 29.234375 23.242188 29.648438 C 23.199219 30.09375 23.011719 30.527344 22.496094 31.039062 C 22.09375 30.570312 21.898438 30.039062 22 29.515625 C 22.101562 29.007812 22.511719 28.507812 23.148438 28.078125 Z M 23.222656 27.371094 C 22.238281 27.898438 21.640625 28.625 21.488281 29.414062 C 21.347656 30.121094 21.570312 30.847656 22.09375 31.433594 C 21.875 31.742188 21.675781 32.0625 21.496094 32.390625 C 21.359375 31.8125 21.074219 31.265625 20.78125 30.554688 C 20.707031 30.371094 20.46875 30.324219 20.328125 30.457031 C 19.507812 31.21875 19.148438 32.089844 19.214844 32.890625 C 19.28125 33.6875 19.78125 34.390625 20.578125 34.804688 C 20.492188 35.183594 20.429688 35.5625 20.390625 35.945312 C 20.015625 35.453125 19.503906 35.074219 18.910156 34.53125 C 18.753906 34.390625 18.527344 34.457031 18.457031 34.632812 C 18.046875 35.667969 18.09375 36.613281 18.5 37.308594 C 18.886719 37.976562 19.605469 38.390625 20.464844 38.453125 C 20.527344 38.828125 20.613281 39.199219 20.71875 39.566406 C 20.1875 39.25 19.578125 39.074219 18.824219 38.800781 C 18.585938 38.71875 18.433594 38.871094 18.4375 39.066406 C 18.464844 40.175781 18.84375 41.035156 19.480469 41.53125 C 20.09375 42.011719 20.917969 42.132812 21.742188 41.871094 C 21.945312 42.199219 22.164062 42.515625 22.40625 42.820312 C 21.769531 42.714844 21.121094 42.835938 20.292969 42.84375 C 20.074219 42.847656 19.960938 43.0625 20.039062 43.234375 C 20.5 44.25 21.195312 44.886719 21.972656 45.097656 C 22.726562 45.300781 23.527344 45.089844 24.179688 44.535156 C 24.492188 44.761719 24.8125 44.972656 25.148438 45.164062 C 24.511719 45.304688 23.949219 45.644531 23.179688 45.96875 C 22.980469 46.054688 22.949219 46.277344 23.09375 46.425781 C 23.882812 47.214844 24.785156 47.539062 25.585938 47.445312 C 26.363281 47.355469 27.03125 46.867188 27.429688 46.105469 C 27.707031 46.179688 27.992188 46.246094 28.277344 46.296875 C 28.652344 46.371094 28.753906 45.804688 28.375 45.746094 C 25.28125 45.207031 22.691406 43.117188 21.535156 40.222656 C 20.390625 37.371094 20.808594 34.0625 22.621094 31.660156 C 23.078125 31.050781 23.714844 30.617188 23.808594 29.695312 C 23.878906 29.050781 23.71875 28.417969 23.632812 27.585938 C 23.613281 27.375 23.390625 27.28125 23.222656 27.371094 Z M 23.222656 27.371094 " fill-opacity="1" fill-rule="nonzero"/></g><g clip-path="url(#4334eaaec8)"><path fill="#000000" d="M 33.175781 46 C 33.503906 46.523438 33.953125 46.867188 34.488281 46.929688 C 35.007812 46.988281 35.609375 46.75 36.214844 46.28125 C 35.664062 46.027344 35.160156 45.761719 34.609375 45.699219 C 34.054688 45.636719 33.660156 45.75 33.175781 46 Z M 37.804688 43.351562 C 37.230469 43.410156 36.8125 43.667969 36.335938 44.214844 C 36.835938 44.582031 37.382812 44.738281 37.902344 44.597656 C 38.40625 44.460938 38.875 44.019531 39.265625 43.359375 C 38.8125 43.335938 38.378906 43.292969 37.804688 43.351562 Z M 40.972656 39.453125 C 40.402344 39.660156 39.855469 39.824219 39.503906 40.050781 C 39.121094 40.292969 38.839844 40.695312 38.617188 41.382812 C 39.222656 41.523438 39.785156 41.453125 40.210938 41.125 C 40.621094 40.804688 40.878906 40.214844 40.972656 39.453125 Z M 41.144531 35.21875 C 40.695312 35.617188 40.246094 35.972656 40.003906 36.3125 C 39.738281 36.675781 39.628906 37.152344 39.679688 37.875 C 40.292969 37.78125 40.792969 37.511719 41.058594 37.046875 C 41.320312 36.597656 41.339844 35.957031 41.144531 35.21875 Z M 39.566406 31.15625 C 39.328125 31.710938 39.078125 32.222656 39.003906 32.628906 C 38.921875 33.070312 39.027344 33.550781 39.386719 34.179688 C 39.902344 33.839844 40.234375 33.382812 40.277344 32.847656 C 40.320312 32.332031 40.0625 31.742188 39.566406 31.15625 Z M 36.867188 28.078125 C 36.789062 28.675781 36.734375 29.234375 36.773438 29.648438 C 36.816406 30.09375 37 30.527344 37.519531 31.039062 C 37.921875 30.570312 38.117188 30.039062 38.011719 29.515625 C 37.914062 29.007812 37.5 28.507812 36.867188 28.078125 Z M 36.792969 27.371094 C 37.777344 27.898438 38.371094 28.625 38.527344 29.414062 C 38.667969 30.121094 38.445312 30.847656 37.921875 31.433594 C 38.140625 31.742188 38.339844 32.0625 38.519531 32.390625 C 38.65625 31.8125 38.941406 31.265625 39.234375 30.554688 C 39.308594 30.371094 39.546875 30.324219 39.6875 30.457031 C 40.503906 31.21875 40.867188 32.089844 40.800781 32.890625 C 40.734375 33.6875 40.234375 34.390625 39.4375 34.804688 C 39.523438 35.183594 39.585938 35.5625 39.625 35.945312 C 40 35.453125 40.511719 35.074219 41.105469 34.53125 C 41.261719 34.390625 41.488281 34.457031 41.558594 34.632812 C 41.96875 35.667969 41.917969 36.613281 41.515625 37.308594 C 41.128906 37.976562 40.410156 38.390625 39.550781 38.453125 C 39.488281 38.828125 39.402344 39.199219 39.296875 39.566406 C 39.828125 39.25 40.4375 39.074219 41.191406 38.800781 C 41.425781 38.71875 41.582031 38.871094 41.578125 39.066406 C 41.550781 40.175781 41.171875 41.035156 40.535156 41.53125 C 39.921875 42.011719 39.097656 42.132812 38.273438 41.871094 C 38.070312 42.199219 37.847656 42.515625 37.609375 42.820312 C 38.246094 42.714844 38.890625 42.835938 39.722656 42.84375 C 39.941406 42.847656 40.050781 43.0625 39.972656 43.234375 C 39.511719 44.25 38.820312 44.886719 38.039062 45.097656 C 37.289062 45.300781 36.484375 45.089844 35.832031 44.535156 C 35.523438 44.761719 35.203125 44.972656 34.867188 45.164062 C 35.503906 45.304688 36.0625 45.644531 36.835938 45.96875 C 37.03125 46.054688 37.066406 46.277344 36.917969 46.425781 C 36.132812 47.214844 35.230469 47.539062 34.425781 47.445312 C 33.652344 47.355469 32.980469 46.867188 32.585938 46.105469 C 32.304688 46.179688 32.023438 46.246094 31.738281 46.296875 C 31.363281 46.371094 31.261719 45.804688 31.640625 45.746094 C 34.734375 45.207031 37.324219 43.117188 38.480469 40.222656 C 39.625 37.371094 39.207031 34.0625 37.394531 31.660156 C 36.933594 31.050781 36.300781 30.617188 36.203125 29.695312 C 36.136719 29.050781 36.296875 28.417969 36.378906 27.585938 C 36.402344 27.375 36.625 27.28125 36.792969 27.371094 Z M 36.792969 27.371094 " fill-opacity="1" fill-rule="nonzero"/></g></svg>