<?xml version="1.0" encoding="UTF-8"?>
<svg version="1.1" xmlns="http://www.w3.org/2000/svg" width="2578" height="1750">
<path d="M0 0 C67.83270455 -7.3619771 67.83270455 -7.3619771 83.02587891 3.62548828 C92.84506096 12.72272757 97.97071263 25.76058138 103.1484375 37.83837891 C107.16576604 46.92652008 112.90316455 54.80652772 118.64245605 62.8710022 C121.7350157 67.24792826 124.71509128 71.69980324 127.703125 76.1484375 C128.59623383 77.47217125 128.59623383 77.47217125 129.50738525 78.82264709 C137.12980917 90.1289435 144.60533608 101.53235411 152.09188843 112.92883301 C161.58866599 127.38315447 171.18584708 141.75891722 181 156 C184.80739876 152.56319393 187.32373969 148.64506202 190.03125 144.34375 C191.01371214 142.80429754 191.99680389 141.26524674 192.98046875 139.7265625 C193.73239502 138.54658691 193.73239502 138.54658691 194.49951172 137.34277344 C196.83386884 133.69804664 199.21205946 130.08265783 201.59375 126.46875 C202.06565765 125.75172409 202.53756531 125.03469818 203.02377319 124.29594421 C204.51523351 122.03022367 206.00760717 119.7651064 207.5 117.5 C208.58550732 115.85135661 209.67095496 114.20267393 210.75634766 112.55395508 C213.59921992 108.23595781 216.4428897 103.91848635 219.28674316 99.60113525 C222.08487546 95.35289856 224.88225297 91.10416494 227.6796875 86.85546875 C232.1569718 80.05560728 236.63493769 73.25619514 241.11328125 66.45703125 C245.24555046 60.18325363 249.37674473 53.90877028 253.50665283 47.63343811 C255.94011132 43.9358722 258.37388792 40.23851572 260.80767822 36.54116821 C261.95590584 34.79662184 263.10398314 33.05197653 264.25189209 31.30722046 C264.79380188 30.48355988 265.33571167 29.65989929 265.89404297 28.8112793 C266.42123932 28.00604828 266.94843567 27.20081726 267.49160767 26.3711853 C268.53379219 24.7967905 269.59159128 23.23261128 270.66537476 21.67959595 C273.15789438 18.04259255 275.22932689 14.67130346 276.76074219 10.52612305 C278.64994139 5.90389672 280.462225 2.4045762 285 0 C295.63854475 -2.35366986 306.86228853 -1.48055973 317.67242432 -1.02996826 C321.76744367 -0.87557575 325.86383727 -0.80782038 329.9609375 -0.73242188 C337.97776805 -0.57228332 345.98783966 -0.31687078 354 0 C353.21491647 3.48892609 351.99520347 5.80422649 349.984375 8.78515625 C349.32550293 9.76798584 348.66663086 10.75081543 347.98779297 11.76342773 C346.88008545 13.39646851 346.88008545 13.39646851 345.75 15.0625 C344.95799057 16.23932465 344.16650455 17.4165017 343.37548828 18.59399414 C341.1031821 21.97289147 338.82317272 25.34653262 336.54187012 28.71936035 C333.75645604 32.83937391 330.9762292 36.96288759 328.1953125 41.0859375 C326.99122935 42.87102479 325.78712752 44.65609948 324.58300781 46.44116211 C323.97477173 47.34285126 323.36653564 48.24454041 322.73986816 49.17355347 C320.85679018 51.96448902 318.9728817 54.7548626 317.08886719 57.54516602 C309.35376348 69.00450741 301.65651306 80.48802108 294 92 C285.21916554 105.20236182 276.37487806 118.36068177 267.5 131.5 C257.32207889 146.56916312 247.18950462 161.6673312 237.11328125 176.8046875 C236.66187775 177.48256317 236.21047424 178.16043884 235.74539185 178.8588562 C234.85973399 180.19095533 233.97580243 181.52420405 233.09371948 182.8586731 C230.64209433 186.56250141 228.1515928 190.2341962 225.61767578 193.88232422 C225.05705948 194.69845688 224.49644318 195.51458954 223.9188385 196.35545349 C222.83016033 197.93909695 221.73159161 199.51599809 220.62205505 201.08509827 C219.88983482 202.15660378 219.88983482 202.15660378 219.14282227 203.24975586 C218.48528709 204.19255653 218.48528709 204.19255653 217.81446838 205.15440369 C216.76396255 207.53486403 217.09656213 208.6003806 218 211 C219.00051323 212.71619346 220.06801065 214.39397178 221.17578125 216.04296875 C221.83304199 217.02595947 222.49030273 218.0089502 223.16748047 219.02172852 C223.87533691 220.06643311 224.58319336 221.1111377 225.3125 222.1875 C226.0358252 223.26378662 226.75915039 224.34007324 227.50439453 225.44897461 C232.19661054 232.40645196 236.97748054 239.29515837 241.84765625 246.12890625 C245.33293917 251.02534992 248.69734572 255.98916295 252.01245117 261.00195312 C255.68937058 266.55517546 259.43202088 272.06215272 263.1875 277.5625 C263.82679443 278.49884277 264.46608887 279.43518555 265.12475586 280.39990234 C266.43403801 282.31687302 267.74352835 284.23370151 269.05322266 286.15039062 C272.16316796 290.70259549 275.26922666 295.25744816 278.375 299.8125 C278.98819092 300.71170166 279.60138184 301.61090332 280.2331543 302.53735352 C285.71561711 310.57881996 291.18765325 318.62735965 296.65917969 326.67626953 C303.7625962 337.12446728 310.88021318 347.56295362 318 358 C326.55467479 370.54047907 335.10147841 383.08623456 343.63500977 395.64111328 C349.14112998 403.74069134 354.65668645 411.83379814 360.1796875 419.921875 C361.30065594 421.56445738 362.42009375 423.20808597 363.53759766 424.85302734 C364.4526106 426.19637022 365.37327089 427.53590335 366.30224609 428.86962891 C369 432.78343818 369 432.78343818 369 435 C302.11100604 442.36200454 302.11100604 442.36200454 287.02148438 431.37451172 C277.2281253 422.2547706 272.07687906 409.22769703 266.86767578 397.16162109 C262.82918885 388.0845515 257.09618665 380.19938958 251.35955811 372.13366699 C248.2522825 367.73287458 245.25734377 363.25715876 242.25390625 358.78515625 C241.35738342 357.45615799 241.35738342 357.45615799 240.44274902 356.10031128 C232.48726986 344.30030865 224.68430244 332.39949911 216.8684082 320.50683594 C208.02534022 307.05397498 199.12404576 293.6409418 190.1875 280.25 C189.25609695 278.85429276 189.25609695 278.85429276 188.30587769 277.4303894 C184.8722152 272.28583627 181.43688357 267.14240175 178 262 C171.12154755 271.1068674 164.90773954 280.62621127 158.66308594 290.17211914 C148.06572557 306.36594831 137.35244668 322.47613396 126.5 338.5 C118.4619464 350.37099099 110.4504875 362.25713447 102.59571838 374.25054932 C99.5147194 378.95389937 96.40736486 383.63287409 93.22241211 388.26660156 C87.59491352 396.51591481 82.60601596 404.33198137 78.97265625 413.65625 C72.33060661 429.49806863 72.33060661 429.49806863 64.72595215 433.94244385 C43.67402228 442.10971779 13.99440887 436.82345292 -8 435 C-6.73692877 431.75827457 -5.46180757 428.96327962 -3.47265625 426.10546875 C-2.94236816 425.3364624 -2.41208008 424.56745605 -1.86572266 423.77514648 C-1.27065918 422.92122314 -0.6755957 422.0672998 -0.0625 421.1875 C1.30456571 419.20393794 2.67034289 417.21948749 4.03515625 415.234375 C4.60393494 414.40829994 4.60393494 414.40829994 5.1842041 413.5655365 C10.21855694 406.24498816 15.17719215 398.87315313 20.14334106 391.5062561 C22.4873988 388.02906293 24.83273297 384.55273146 27.17802429 381.07637024 C28.36844431 379.31183452 29.5588026 377.54725717 30.74909973 375.78263855 C36.66112841 367.01842085 42.58018662 358.25896049 48.5 349.5 C57.17097705 336.66957393 65.83708668 323.83587185 74.5 311 C82.13699347 299.68423752 89.775501 288.3695053 97.41967773 277.05859375 C99.45904639 274.04090028 101.49757945 271.02264508 103.53540039 268.00390625 C108.54155463 260.58929447 113.55471554 253.17961099 118.58468628 245.78112793 C121.09579714 242.08636747 123.60327949 238.38915218 126.11035156 234.69165039 C127.31907976 232.91102127 128.52950324 231.13154166 129.74169922 229.35327148 C131.42456168 226.88424575 133.10155271 224.41132862 134.77734375 221.9375 C135.27817978 221.20591675 135.77901581 220.4743335 136.29502869 219.72058105 C139.88313789 214.68865059 139.88313789 214.68865059 142 209 C140.75988357 206.38675802 140.75988357 206.38675802 138.6171875 203.92578125 C135.61832434 200.08159664 132.75282316 196.24078014 130.0703125 192.16796875 C129.10254883 190.70375488 129.10254883 190.70375488 128.11523438 189.20996094 C127.45845703 188.21254883 126.80167969 187.21513672 126.125 186.1875 C121.29913521 178.89950494 116.42599459 171.6702819 111.29858398 164.59130859 C108.16000784 160.2529425 105.18511425 155.82288798 102.234375 151.35546875 C99.51248808 147.24882813 96.72321573 143.18849061 93.9375 139.125 C89.11536308 132.08986306 84.30257301 125.0485094 79.5 118 C72.67901758 107.99152841 65.84250298 97.99376668 59 88 C51.51910276 77.07383134 44.04833749 66.14087268 36.59082031 55.19873047 C31.472768 47.69040798 26.34470452 40.18899059 21.2109375 32.69140625 C18.96367315 29.40923577 16.71929127 26.12511503 14.4765625 22.83984375 C13.60378662 21.56210083 13.60378662 21.56210083 12.71337891 20.25854492 C11.60830527 18.64061508 10.50377244 17.02231567 9.39990234 15.40356445 C8.89668457 14.66710693 8.3934668 13.93064941 7.875 13.171875 C7.39546875 12.46998047 6.9159375 11.76808594 6.421875 11.04492188 C5.02152135 9.03095172 3.57738437 7.05475485 2.125 5.078125 C0 2 0 2 0 0 Z " fill="#241F59" transform="translate(94,801)"/>
<path d="M0 0 C1.20849609 1.01126953 1.20849609 1.01126953 2.44140625 2.04296875 C33.31937631 28.57192894 47.57500651 69.36086566 51 109 C51.14754315 112.19442591 51.18677964 115.38447959 51.203125 118.58203125 C51.20882507 119.47629318 51.21452515 120.37055511 51.22039795 121.29191589 C51.22978993 123.1785669 51.23635865 125.06523389 51.24023438 126.9519043 C51.24984493 129.7670761 51.28088468 132.58148618 51.3125 135.39648438 C51.4057003 151.25105574 49.98766388 167.03559263 45.5 182.3125 C45.13140869 183.58081665 45.13140869 183.58081665 44.75537109 184.87475586 C40.04081257 200.13224937 32.67547979 215.26594911 23 228 C22.35546875 228.85207031 21.7109375 229.70414063 21.046875 230.58203125 C19.08111837 233.10114063 17.06056583 235.55799355 15 238 C14.32453125 238.81082031 13.6490625 239.62164063 12.953125 240.45703125 C-11.8746827 269.22647996 -49.96102669 286.19211253 -87.44433594 289.83886719 C-93.35289909 290.21139792 -99.26898373 290.24489902 -105.1875 290.25 C-106.24505493 290.25101212 -106.24505493 290.25101212 -107.32397461 290.25204468 C-125.62617341 290.22435642 -142.75205647 288.36017918 -160 282 C-161.47726562 281.46004395 -161.47726562 281.46004395 -162.984375 280.90917969 C-182.51207865 273.74396067 -182.51207865 273.74396067 -186 272 C-186.33 317.87 -186.66 363.74 -187 411 C-206.47 411 -225.94 411 -246 411 C-246.33 268.11 -246.66 125.22 -247 -22 C-228.19 -22 -209.38 -22 -190 -22 C-188.96816228 -17.87264913 -188.67732314 -13.95690036 -188.46484375 -9.734375 C-188.42186661 -8.94097717 -188.37888947 -8.14757935 -188.33460999 -7.33013916 C-188.19859003 -4.80360546 -188.06797416 -2.27682557 -187.9375 0.25 C-187.84605968 1.96616487 -187.75426687 3.68231099 -187.66210938 5.3984375 C-187.43732008 9.59875205 -187.21737601 13.79929554 -187 18 C-186.25524414 17.18160645 -185.51048828 16.36321289 -184.74316406 15.52001953 C-183.75072001 14.43255424 -182.75820313 13.34515542 -181.765625 12.2578125 C-181.27658691 11.72003174 -180.78754883 11.18225098 -180.28369141 10.62817383 C-161.26544126 -10.18395133 -133.99676143 -24.3015031 -106 -28 C-105.19175781 -28.11085938 -104.38351562 -28.22171875 -103.55078125 -28.3359375 C-67.09361786 -32.46737715 -28.04748907 -24.69137927 0 0 Z M-160 48 C-160.7321875 48.70898438 -161.464375 49.41796875 -162.21875 50.1484375 C-180.888781 69.48525533 -186.80024008 98.45543605 -187.33569336 124.37744141 C-187.35832748 125.34970169 -187.38096161 126.32196198 -187.40428162 127.32368469 C-187.59981162 136.19598982 -187.71653998 145.06949051 -187.80750179 153.94342995 C-187.86953716 159.88831416 -187.95876949 165.83012371 -188.11108398 171.7734375 C-188.25843005 177.55065637 -188.3367986 183.32506804 -188.36721992 189.10404587 C-188.39048363 191.29638254 -188.4380245 193.48860677 -188.51078606 195.67985916 C-189.33312676 206.76511635 -189.33312676 206.76511635 -185.63505936 216.79083061 C-181.87510512 220.18979242 -177.65715412 222.10445893 -173 224 C-171.39072518 224.81947211 -169.78495353 225.64599734 -168.1875 226.48828125 C-166.79831226 227.11138702 -165.40245621 227.71986189 -164 228.3125 C-163.24364258 228.63879395 -162.48728516 228.96508789 -161.70800781 229.30126953 C-145.36625136 236.18436501 -128.90039333 238.42949928 -111.25 238.375 C-110.20150879 238.37368576 -110.20150879 238.37368576 -109.13183594 238.37234497 C-80.95332833 238.25619383 -58.16010066 228.87695318 -38 209 C-37.2678125 208.28070312 -36.535625 207.56140625 -35.78125 206.8203125 C-16.1779316 186.2057118 -8.22283287 155.40233547 -8.81640625 127.57421875 C-10.36720198 97.38319541 -16.45331385 67.64666713 -38 45 C-72.60797425 13.93457429 -127.16906143 15.26128317 -160 48 Z " fill="#241F59" transform="translate(742,955)"/>
<path d="M0 0 C19.47 0 38.94 0 59 0 C59.33 53.46 59.66 106.92 60 162 C62.31 159.36 64.62 156.72 67 154 C69.20729888 152.04689065 71.35686882 150.21892303 73.6875 148.4375 C74.59640991 147.73717651 74.59640991 147.73717651 75.52368164 147.02270508 C97.95828113 130.0390649 124.59021941 123.77356216 152.3125 123.75 C153.0252005 123.74932526 153.737901 123.74865051 154.47219849 123.74795532 C165.87461247 123.76507775 176.87508226 124.34611026 188 127 C188.71075684 127.16628906 189.42151367 127.33257813 190.15380859 127.50390625 C221.47220575 135.11332558 249.56950039 155.23705051 266.38671875 182.828125 C292.20624945 226.76205201 297.48630628 280.904997 284.765625 329.8984375 C282.34021535 338.64469466 278.9541407 346.8445848 275 355 C274.67773438 355.67208496 274.35546875 356.34416992 274.0234375 357.03662109 C266.65528434 372.18102126 256.85012328 385.08512195 245 397 C244.51805176 397.48597656 244.03610352 397.97195313 243.53955078 398.47265625 C211.29078706 430.53576844 165.25070608 443.41063587 120.84829712 443.32363892 C119.86710907 443.31996307 118.88592102 443.31628723 117.875 443.3125 C116.36031631 443.30976578 116.36031631 443.30976578 114.81503296 443.30697632 C83.93082492 443.21344413 54.15437831 439.31180995 24.125 432 C23.19316895 431.77530029 22.26133789 431.55060059 21.30126953 431.3190918 C13.83996187 429.42274836 7.3229941 426.81653619 0 424 C0 284.08 0 144.16 0 0 Z M78.4921875 203.81640625 C64.26353939 221.92778715 58.63477114 242.67743082 58.77294922 265.38769531 C58.77265717 266.66716537 58.77236511 267.94663544 58.77206421 269.26487732 C58.77149635 272.73312243 58.78315745 276.20122584 58.79721212 279.66943836 C58.8098153 283.30889457 58.81089747 286.94835493 58.81326294 290.58782959 C58.81944979 297.46170013 58.83582229 304.33550616 58.85596192 311.20934844 C58.87840853 319.04260037 58.88933626 326.87585557 58.89935279 334.70913172 C58.92019138 350.80612542 58.95531228 366.90305445 59 383 C60.41830812 383.47829926 61.83710592 383.95514662 63.25610352 384.43139648 C64.04614273 384.69709946 64.83618195 384.96280243 65.65016174 385.23655701 C100.44807032 396.54210938 142.97894658 395.59603505 175.91943359 379.10742188 C199.96630097 366.30800972 216.67427879 344.41641434 225.1875 318.8125 C234.42337446 286.35168599 232.46460701 247.7171951 216.171875 217.6953125 C205.7303721 199.43689499 189.6762945 185.02090383 169.20385742 179.21166992 C136.8882663 170.5422242 101.27602982 178.22894471 78.4921875 203.81640625 Z " fill="#241F59" transform="translate(1380,1274)"/>
<path d="M0 0 C1.54142446 1.37616031 3.06655497 2.76804589 4.58618164 4.16821289 C6.00350586 5.46178711 6.00350586 5.46178711 7.44946289 6.78149414 C39.37837632 37.26525166 51.32735605 81.579957 55.58618164 124.16821289 C55.58618164 131.75821289 55.58618164 139.34821289 55.58618164 147.16821289 C-22.95381836 147.16821289 -101.49381836 147.16821289 -182.41381836 147.16821289 C-177.89228096 175.80461641 -169.24108151 200.08800307 -145.40429688 217.75463867 C-118.34974425 236.95412743 -88.42384833 241.64950398 -55.81665039 236.57666016 C-41.19057163 234.04430409 -28.37097043 229.36230408 -15.41381836 222.16821289 C-14.7717041 221.81742676 -14.12958984 221.46664063 -13.46801758 221.10522461 C-5.46558314 216.6926673 1.65691049 211.84357945 8.37597656 205.62207031 C11.47284451 202.81190282 12.2058903 202.16821289 16.58618164 202.16821289 C18.68664362 203.94575476 20.51950134 205.68012891 22.39868164 207.66821289 C22.93348145 208.21848145 23.46828125 208.76875 24.01928711 209.33569336 C27.40227249 212.84180833 30.64677535 216.44752173 33.79711914 220.16430664 C36.80915432 223.5380491 40.09240784 226.6408123 43.35180664 229.77368164 C45.52793732 232.10579371 47.05986096 234.37821762 48.58618164 237.16821289 C30.56658267 255.98409529 10.97272128 268.90653274 -13.41381836 278.16821289 C-14.13617676 278.44648926 -14.85853516 278.72476562 -15.6027832 279.01147461 C-37.35748076 287.25467924 -60.07083398 290.39869891 -83.22631836 290.41821289 C-84.31339081 290.41922501 -84.31339081 290.41922501 -85.42242432 290.42025757 C-129.56850985 290.35533507 -169.23288284 275.99976066 -200.84790039 244.75073242 C-232.21985277 213.18372127 -243.67749326 168.23951374 -243.66259766 124.86352539 C-243.31292869 87.59233515 -231.95220076 49.77838828 -207.41381836 21.16821289 C-206.94717773 20.62326172 -206.48053711 20.07831055 -205.99975586 19.5168457 C-185.1606822 -4.51216637 -158.22104599 -20.26134393 -127.41381836 -27.83178711 C-126.74012207 -28.00822754 -126.06642578 -28.18466797 -125.37231445 -28.36645508 C-83.17533234 -39.04535023 -32.79241908 -28.55275276 0 0 Z M-154.41381836 42.16821289 C-155.17307617 42.83336914 -155.93233398 43.49852539 -156.71459961 44.18383789 C-173.36652129 59.71412754 -180.70488916 80.95213334 -182.41381836 103.16821289 C-124.00381836 103.16821289 -65.59381836 103.16821289 -5.41381836 103.16821289 C-7.45960064 80.66460784 -14.36819919 61.27094375 -29.41381836 44.16821289 C-30.13182617 43.3393457 -30.84983398 42.51047852 -31.58959961 41.65649414 C-45.86753967 26.28225887 -66.64230447 19.89033639 -87.12084961 18.88305664 C-112.04665992 18.1705271 -135.54522033 25.35398483 -154.41381836 42.16821289 Z " fill="#241F59" transform="translate(1812.413818359375,954.831787109375)"/>
<path d="M0 0 C0.69360626 0.00182281 1.38721252 0.00364563 2.10183716 0.00552368 C13.69988174 0.05656512 24.97305301 0.74185094 36.3125 3.3125 C37.38612793 3.55395752 37.38612793 3.55395752 38.48144531 3.80029297 C71.92291206 11.70146566 101.34542498 34.02766733 119.32421875 63.10546875 C140.75062569 98.83409486 146.59718794 137.14501063 148.3125 178.3125 C69.4425 178.3125 -9.4275 178.3125 -90.6875 178.3125 C-86.04807261 207.69554016 -76.9755056 232.0850301 -52.39306641 250.13623047 C-25.23755077 268.86444036 5.26688734 273.10989132 37.54370117 267.72119141 C62.69217753 262.99125148 87.35800041 250.71383103 105.3125 232.3125 C112.82882982 235.53620805 118.2174544 243.11634524 123.42578125 249.2109375 C126.41723992 252.54303847 129.65369587 255.62249795 132.8828125 258.72265625 C135.71560819 261.74217963 137.9671126 264.90292436 140.3125 268.3125 C109.7181945 300.46906791 67.43273718 319.90612025 22.69702148 321.51782227 C17.81859192 321.63868532 12.9421305 321.64711831 8.0625 321.625 C7.20432678 321.62284485 6.34615356 321.6206897 5.4619751 321.61846924 C-7.1236495 321.56777864 -19.39630775 321.27462099 -31.6875 318.3125 C-32.5120166 318.11914062 -33.3365332 317.92578125 -34.18603516 317.7265625 C-59.98271007 311.48333361 -83.15470186 300.35708494 -102.6875 282.3125 C-103.45271973 281.61302246 -103.45271973 281.61302246 -104.23339844 280.89941406 C-131.67469751 255.54622906 -145.95349532 219.83600626 -150.6875 183.3125 C-150.81898437 182.34183594 -150.95046875 181.37117188 -151.0859375 180.37109375 C-155.76146783 136.96448112 -146.01330901 91.19683512 -118.96948242 56.36889648 C-93.45581646 24.93985046 -57.99738361 4.92734254 -17.70510864 0.49777222 C-11.81660083 -0.04295549 -5.90798624 -0.03253836 0 0 Z M-68.89453125 79.24609375 C-82.77408025 95.24234956 -88.94733944 113.43057333 -90.6875 134.3125 C-32.2775 134.3125 26.1325 134.3125 86.3125 134.3125 C84.26562611 111.79688721 77.35128034 92.43319619 62.3125 75.3125 C61.64476562 74.54550781 60.97703125 73.77851562 60.2890625 72.98828125 C46.0154174 57.69509008 24.36480455 50.92291737 3.9296875 50.19140625 C-23.86995366 49.70619691 -49.44204168 58.75079031 -68.89453125 79.24609375 Z " fill="#241F59" transform="translate(1872.6875,1395.6875)"/>
<path d="M0 0 C30.28391053 26.69005917 48.25550052 64.75990705 52.19750977 104.69726562 C52.47415827 109.92822781 52.53954781 115.14776543 52.51000977 120.38476562 C52.50785461 121.07970123 52.50569946 121.77463684 52.503479 122.4906311 C52.27378869 168.90334316 33.28222488 208.56386974 0.78344727 241.11523438 C-28.30708957 268.60044059 -68.4448487 282.18224443 -107.98999023 282.00976562 C-108.99588196 282.0070314 -108.99588196 282.0070314 -110.02209473 282.00424194 C-121.51023011 281.95201077 -132.56943138 281.13693809 -143.80249023 278.69726562 C-144.58978516 278.53097656 -145.37708008 278.3646875 -146.18823242 278.19335938 C-158.43889595 275.52264549 -169.57485286 271.23084993 -180.80249023 265.69726562 C-181.81617676 265.20371582 -181.81617676 265.20371582 -182.8503418 264.70019531 C-191.90572563 260.24578139 -199.95849563 255.09764218 -207.80249023 248.69726562 C-208.3685498 248.23803711 -208.93460938 247.77880859 -209.51782227 247.30566406 C-243.32544065 219.70949181 -263.65399204 180.12813683 -268.20483398 136.87304688 C-268.47732376 133.47998928 -268.66959877 130.09845647 -268.80249023 126.69726562 C-268.84374023 125.77558594 -268.88499023 124.85390625 -268.92749023 123.90429688 C-269.57659939 95.14064757 -262.54756977 66.8737609 -248.80249023 41.69726562 C-248.22499023 40.62734375 -247.64749023 39.55742188 -247.05249023 38.45507812 C-240.68907726 27.11288371 -232.7305469 17.11664616 -223.80249023 7.69726562 C-223.11509766 6.95307373 -223.11509766 6.95307373 -222.41381836 6.19384766 C-164.27630018 -56.5182362 -62.47599614 -53.81922463 0 0 Z M-182.00561523 45.08789062 C-192.41866981 57.46876654 -199.10006611 71.32492187 -203.80249023 86.69726562 C-204.02839844 87.4283252 -204.25430664 88.15938477 -204.48706055 88.91259766 C-213.12813832 118.32013653 -208.30771821 150.51549026 -194.48999023 177.44726562 C-181.27739289 200.82118511 -160.33209137 219.43582113 -134.30249023 227.07226562 C-108.14179285 234.10142497 -81.07292631 230.08262788 -57.80249023 216.69726562 C-53.53723729 214.02080816 -49.64433958 210.94761073 -45.80249023 207.69726562 C-44.62686523 206.76333984 -44.62686523 206.76333984 -43.42749023 205.81054688 C-22.64555371 188.60050569 -10.77315477 160.4660947 -7.99731445 134.09277344 C-5.85409479 107.74030305 -11.03234215 83.764693 -23.80249023 60.69726562 C-24.34647461 59.70984375 -24.89045898 58.72242188 -25.45092773 57.70507812 C-38.84479813 35.1641743 -60.54173402 21.04723807 -85.18139648 13.60742188 C-121.48604402 4.4823055 -157.28504105 18.26343779 -182.00561523 45.08789062 Z " fill="#241F59" transform="translate(1112.802490234375,963.302734375)"/>
<path d="M0 0 C1.15878159 0.00273422 1.15878159 0.00273422 2.3409729 0.00552368 C13.74917113 0.05086053 24.71039857 0.46521856 35.8125 3.3125 C36.47620605 3.47878906 37.13991211 3.64507813 37.82373047 3.81640625 C52.06858949 7.48548513 65.69415874 13.56491314 76.8125 23.3125 C77.87791016 24.1478125 77.87791016 24.1478125 78.96484375 25 C102.40106306 44.11143367 112.42779327 76.91670416 115.59538448 105.86069477 C115.92642085 109.59896595 115.94713421 113.31283806 115.93275452 117.06349182 C115.93403615 118.31234292 115.93403615 118.31234292 115.93534368 119.58642334 C115.93697848 122.3500372 115.93151017 125.11358908 115.92602539 127.87719727 C115.92574306 129.86864724 115.92590215 131.86009732 115.9264679 133.85154724 C115.92675408 139.23928139 115.92088625 144.62699315 115.91389394 150.01472211 C115.90763063 155.65214247 115.90705425 161.28956339 115.90586853 166.92698669 C115.90276399 177.59398125 115.89456243 188.26096553 115.88451904 198.92795557 C115.87333066 211.07545294 115.86784059 223.2229508 115.86282361 235.37045205 C115.85237908 260.35114171 115.8340445 285.33181728 115.8125 310.3125 C96.3425 310.3125 76.8725 310.3125 56.8125 310.3125 C56.79062622 301.93484253 56.79062622 301.93484253 56.76831055 293.38793945 C56.71784475 274.87993372 56.65137599 256.37201057 56.57678509 237.8640871 C56.53197284 226.64906573 56.49252524 215.43407507 56.46606445 204.21899414 C56.44296566 194.43478852 56.40943698 184.65068133 56.36379844 174.86655396 C56.34002518 169.69424311 56.32119297 164.52202877 56.31488609 159.34966469 C56.30876237 154.46340789 56.288506 149.57739754 56.25822449 144.69123268 C56.24955929 142.91497013 56.24569716 141.13867521 56.24749184 139.36239243 C56.26514209 113.79101535 53.54515877 88.0534355 35.28125 68.6328125 C21.75830361 55.92295466 2.81712642 51.67259076 -15.328125 52.12890625 C-38.53622692 53.61904394 -57.27356856 61.36731876 -73.1875 78.3125 C-94.28306898 102.8321632 -99.26890155 138.68011013 -99.39282227 169.76806641 C-99.40241937 171.30647026 -99.41243047 172.84487157 -99.42282104 174.38327026 C-99.44967787 178.53128978 -99.47079054 182.67932046 -99.49082303 186.8273778 C-99.51280225 191.1728925 -99.54013213 195.51837358 -99.56687927 199.86386108 C-99.61664571 208.08001401 -99.66164358 216.29618575 -99.70490164 224.51237524 C-99.75441182 233.87158066 -99.80927852 243.23075234 -99.86458123 252.58992505 C-99.97815468 271.83075333 -100.08433971 291.07161288 -100.1875 310.3125 C-119.9875 310.3125 -139.7875 310.3125 -160.1875 310.3125 C-160.1875 210.3225 -160.1875 110.3325 -160.1875 7.3125 C-141.3775 7.3125 -122.5675 7.3125 -103.1875 7.3125 C-102.5275 21.1725 -101.8675 35.0325 -101.1875 49.3125 C-97.77466559 45.89966559 -94.92275938 42.81328314 -92 39.0625 C-69.36909424 11.3034087 -34.85904228 -0.17058213 0 0 Z " fill="#241F59" transform="translate(2092.1875,925.6875)"/>
<path d="M0 0 C0.78750641 -0.00067474 1.57501282 -0.00134949 2.38638306 -0.00204468 C13.91852984 0.01368412 24.96237941 0.37116866 36.1875 3.25 C36.85120605 3.41628906 37.51491211 3.58257813 38.19873047 3.75390625 C64.00216799 10.40015298 84.39864222 25.11503333 98.20776367 47.99975586 C106.11455192 61.69854551 111.55862356 76.64811267 114.1875 92.25 C114.43825444 93.73688119 114.43825444 93.73688119 114.69407463 95.25380039 C116.32361849 106.06024188 116.4581662 116.67491015 116.41455078 127.58764648 C116.4139854 129.58983352 116.4143057 131.59202097 116.41543579 133.59420776 C116.41600534 138.9836806 116.40431595 144.37306288 116.39028788 149.76251483 C116.37771371 155.41190798 116.37660478 161.06130363 116.37423706 166.71070862 C116.36804183 177.38814305 116.3516577 188.06553612 116.33153808 198.74295241 C116.3091179 210.90751284 116.29817031 223.07207533 116.28814721 235.2366513 C116.26728958 260.24112903 116.23063801 285.2455501 116.1875 310.25 C96.7175 310.25 77.2475 310.25 57.1875 310.25 C57.16768066 304.60841797 57.14786133 298.96683594 57.12744141 293.15429688 C57.0604484 274.4866165 56.98290771 255.81899085 56.89997292 237.15137482 C56.84996014 225.83644446 56.80351637 214.52152094 56.765625 203.20654297 C56.73257 193.33853825 56.69266527 183.47058841 56.64470994 173.60264444 C56.61957858 168.38300242 56.59775867 163.16339618 56.58415604 157.94371033 C56.57121336 153.01894138 56.54903082 148.09429597 56.52011681 143.16959572 C56.51113547 141.37349099 56.50537325 139.57736643 56.50328636 137.78124046 C56.48428302 123.89527122 56.13108808 109.80158844 51.9375 96.4375 C51.61217285 95.37970337 51.61217285 95.37970337 51.28027344 94.30053711 C46.57793434 79.66676419 37.61883897 67.94749251 24.1875 60.25 C17.42985758 56.92424928 10.6345489 54.4229784 3.1875 53.25 C2.48367188 53.13914062 1.77984375 53.02828125 1.0546875 52.9140625 C-19.97205342 50.12556998 -42.35107909 53.77427427 -59.8125 66.25 C-84.48600574 85.25426121 -93.45959893 114.53018487 -97.8125 144.25 C-98.65391001 151.57968439 -98.97322805 158.85587029 -99.01782227 166.22924805 C-99.02772186 167.26473282 -99.03762146 168.30021759 -99.04782104 169.36708069 C-99.07910386 172.74860442 -99.10406038 176.13014214 -99.12890625 179.51171875 C-99.14950456 181.87254679 -99.17050173 184.23337139 -99.19187927 186.5941925 C-99.24680305 192.77706084 -99.29634204 198.9599608 -99.34472656 205.1428833 C-99.39515979 211.46442444 -99.45073142 217.78592024 -99.50585938 224.10742188 C-99.61307719 236.48824242 -99.71460139 248.86910251 -99.8125 261.25 C-101.40824621 261.09601096 -103.00383881 260.94042952 -104.59936523 260.78417969 C-105.48792709 260.69771179 -106.37648895 260.6112439 -107.29197693 260.52215576 C-109.27609972 260.30791831 -111.25217771 260.01912385 -113.22265625 259.703125 C-126.70307854 258.00157006 -140.63128521 258.60721798 -153.86328125 261.59375 C-156.8125 262.25 -156.8125 262.25 -159.8125 262.25 C-159.8125 178.1 -159.8125 93.95 -159.8125 7.25 C-141.0025 7.25 -122.1925 7.25 -102.8125 7.25 C-101.875 27.6875 -101.875 27.6875 -101.58618164 34.14624023 C-101.50704933 35.82537584 -101.42756532 37.50449493 -101.34765625 39.18359375 C-101.30958862 40.06374146 -101.271521 40.94388916 -101.2322998 41.85070801 C-101.42186674 45.87628315 -101.42186674 45.87628315 -99.8125 49.25 C-99.33941406 48.64414062 -98.86632813 48.03828125 -98.37890625 47.4140625 C-73.11782128 15.40683983 -40.82230437 0.03122549 0 0 Z " fill="#241F59" transform="translate(1389.8125,925.75)"/>
<path d="M0 0 C19.8 0 39.6 0 60 0 C60 32.67 60 65.34 60 99 C89.04 99 118.08 99 148 99 C148 115.5 148 132 148 149 C118.96 149 89.92 149 60 149 C60.09071215 178.29108682 60.09071215 178.29108682 60.20898438 207.58203125 C60.26336504 219.53563028 60.31478248 231.48918738 60.34643555 243.44287109 C60.36950762 252.15067404 60.40300735 260.8583659 60.44870156 269.56608057 C60.47251032 274.17093676 60.49131957 278.77568377 60.49761391 283.38059998 C60.50372119 287.72760626 60.52392085 292.07433363 60.55427551 296.42123604 C60.56296635 298.00447708 60.56679726 299.58775472 60.56500816 301.1710186 C60.5516271 318.49884143 61.8728483 336.60307727 74.359375 349.73046875 C86.08352395 359.80699321 99.38934133 359.76282895 114 359 C127.71420201 357.44124294 138.59032945 350.75874282 148.7578125 341.72265625 C151 340 151 340 154 340 C155.65063477 341.70556641 155.65063477 341.70556641 157.44140625 344.1015625 C158.43430664 345.4170105 158.43430664 345.4170105 159.44726562 346.7590332 C160.14529297 347.70480225 160.84332031 348.65057129 161.5625 349.625 C162.27470703 350.57528076 162.98691406 351.52556152 163.72070312 352.50463867 C169.26013453 359.92208772 174.695415 367.41291328 180 375 C164.07526393 396.07685657 138.1889083 405.98722154 113 410 C108.98923437 410.54941995 105.04517334 410.87444131 101 411 C99.86949219 411.03996094 98.73898437 411.07992188 97.57421875 411.12109375 C71.98317685 411.58048943 45.24233155 407.23868476 26 389 C5.85430234 369.03546869 0.01339635 338.68114767 -0.12025452 311.2233429 C-0.12685576 308.19743854 -0.12071926 305.17165026 -0.11352539 302.14575195 C-0.11324281 300.4692739 -0.11340263 298.79279573 -0.1139679 297.11631775 C-0.11425311 292.59644112 -0.10840113 288.07659139 -0.10139394 283.55672097 C-0.09511433 278.82152206 -0.09455297 274.08632243 -0.09336853 269.35112 C-0.09026875 260.39832389 -0.08207369 251.44554009 -0.07201904 242.49274939 C-0.06081577 232.29438289 -0.05533686 222.09601577 -0.05032361 211.89764464 C-0.03988987 190.93175471 -0.02156131 169.96588164 0 149 C-18.15 149 -36.3 149 -55 149 C-55 132.5 -55 116 -55 99 C-36.85 99 -18.7 99 0 99 C0 66.33 0 33.66 0 0 Z " fill="#241F59" transform="translate(769,1306)"/>
<path d="M0 0 C19.47 0 38.94 0 59 0 C59 32.67 59 65.34 59 99 C88.37 99 117.74 99 148 99 C148 115.5 148 132 148 149 C118.63 149 89.26 149 59 149 C59.14910543 175.24514411 59.14910543 175.24514411 59.30664062 201.49023438 C59.37281682 212.20368107 59.43809537 222.91712753 59.49731445 233.63061523 C59.5404611 241.43561681 59.58681138 249.24059195 59.63687855 257.04555231 C59.66323673 261.17142619 59.68807913 265.29729566 59.70907402 269.42320061 C59.72895986 273.32114947 59.75318783 277.21904916 59.78049088 281.1169529 C59.7896955 282.53369102 59.79742664 283.95043978 59.80341911 285.36719513 C59.83626835 292.91345875 60.01752902 300.43585748 60.44252014 307.96949768 C60.49862525 308.99196985 60.49862525 308.99196985 60.5558638 310.03509802 C61.46370015 324.81687497 64.16173356 339.92815857 75.3125 350.625 C86.08090798 359.22131885 98.79499982 359.79194803 112 359 C124.71525948 357.45954762 135.16224378 352.71098007 145.01953125 344.61328125 C147.56688086 342.53822131 150.23605064 340.77176241 153 339 C162.56434993 350.55444759 171.31303727 362.77935752 180 375 C165.10273785 394.57925883 139.40817896 405.61428296 115.76245117 409.53710938 C111.84078752 410.01958775 107.98354446 410.17910833 104.0390625 410.203125 C103.29022797 410.20882507 102.54139343 410.21452515 101.76986694 410.22039795 C100.18822619 410.22979745 98.60656629 410.2363617 97.02490234 410.24023438 C94.66596736 410.2498333 92.30794597 410.28085914 89.94921875 410.3125 C65.49263946 410.4847407 42.6970614 404.70308035 24.41796875 387.64453125 C3.28013961 364.52609776 -0.18459543 332.03936648 -0.11352539 302.14575195 C-0.11324281 300.4692739 -0.11340263 298.79279573 -0.1139679 297.11631775 C-0.11425311 292.59644112 -0.10840113 288.07659139 -0.10139394 283.55672097 C-0.09511433 278.82152206 -0.09455297 274.08632243 -0.09336853 269.35112 C-0.09026875 260.39832389 -0.08207369 251.44554009 -0.07201904 242.49274939 C-0.06081577 232.29438289 -0.05533686 222.09601577 -0.05032361 211.89764464 C-0.03988987 190.93175471 -0.02156131 169.96588164 0 149 C-18.15 149 -36.3 149 -55 149 C-55 132.5 -55 116 -55 99 C-36.85 99 -18.7 99 0 99 C0 66.33 0 33.66 0 0 Z " fill="#241F59" transform="translate(2312,834)"/>
<path d="M0 0 C11.28772292 6.6018175 17.74018196 17.99036624 21.18359375 30.265625 C23.66006765 43.00177649 17.36701243 53.9098339 11.3125 64.6875 C7.03771397 72.40527872 2.86607358 80.16375834 -1.1875 88 C-5.51689978 96.35111221 -9.95198792 104.63545819 -14.47875977 112.88110352 C-18.25849429 119.772915 -21.96968129 126.69983606 -25.66540527 133.63693237 C-31.08789601 143.81160404 -36.62901814 153.90697669 -42.34570312 163.91992188 C-46.39245485 171.03014866 -50.27589277 178.21868699 -54.125 185.4375 C-58.8056182 194.1961575 -63.6205377 202.85947892 -68.625 211.4375 C-69.17986084 212.38939209 -69.73472168 213.34128418 -70.30639648 214.32202148 C-88.01658384 244.44661173 -88.01658384 244.44661173 -100.51953125 248.609375 C-106.88750705 250.1061183 -113.43466701 249.82850107 -119.9375 249.8125 C-121.23171875 249.82861328 -122.5259375 249.84472656 -123.859375 249.86132812 C-134.24343771 249.86656203 -145.05545403 249.34610066 -153.33862305 242.4074707 C-160.10476895 235.42689525 -164.98514788 226.78339063 -169.625 218.3125 C-170.50998169 216.71341797 -170.50998169 216.71341797 -171.4128418 215.08203125 C-184.08413045 192.07750044 -196.17072388 168.76323499 -208.15618896 145.39622498 C-210.40624421 141.01255086 -212.66987692 136.63617548 -214.9453125 132.265625 C-215.53900635 131.12520752 -216.1327002 129.98479004 -216.74438477 128.80981445 C-217.32373779 127.69695068 -217.90309082 126.58408691 -218.5 125.4375 C-223.40523744 116.00595559 -228.1968284 106.52331943 -232.92651367 97.00268555 C-235.97753069 90.87558868 -239.10366684 84.79583813 -242.3125 78.75 C-245.86230619 72.05581323 -249.34175125 65.32997558 -252.75 58.5625 C-253.18006348 57.71526367 -253.61012695 56.86802734 -254.05322266 55.99511719 C-254.64756104 54.80837402 -254.64756104 54.80837402 -255.25390625 53.59765625 C-255.60396729 52.90164307 -255.95402832 52.20562988 -256.31469727 51.48852539 C-259.53382325 44.15432088 -259.30953309 34.79693391 -257.31640625 27.1640625 C-253.08671139 16.37487365 -245.19095163 5.35918765 -234.3125 0.5 C-229.61364411 -0.96493743 -224.85415574 -1.08042266 -220.1875 0.5 C-213.58979046 4.47824602 -209.57812742 9.55834638 -205.4140625 15.9296875 C-204.50108902 17.2916777 -204.50108902 17.2916777 -203.56967163 18.68118286 C-201.63766468 21.57073111 -199.72516603 24.47262363 -197.8125 27.375 C-196.5376643 29.28465979 -195.26163183 31.19352121 -193.984375 33.1015625 C-187.58246312 42.69355195 -181.33288144 52.36614279 -175.26171875 62.17041016 C-172.71648967 66.25607802 -170.07376082 70.26481663 -167.375 74.25 C-163.18481044 80.49245794 -159.03476924 86.75862155 -154.9375 93.0625 C-154.14690186 94.27873047 -154.14690186 94.27873047 -153.34033203 95.51953125 C-150.21083782 100.34645716 -147.10743793 105.18933124 -144.01953125 110.04296875 C-143.30306347 111.16788965 -142.58659212 112.29280827 -141.87011719 113.41772461 C-140.49146877 115.58460303 -139.11565983 117.75329155 -137.74316406 119.92407227 C-131.64621986 130.96065317 -131.64621986 130.96065317 -122.1875 138.5 C-117.71273092 138.27052466 -115.44361261 136.46171786 -112.1875 133.5 C-110.19104817 130.95722589 -108.43893547 128.27302123 -106.6796875 125.5625 C-106.16093552 124.77802994 -105.64218353 123.99355988 -105.10771179 123.18531799 C-103.41871348 120.62825029 -101.74079651 118.06410131 -100.0625 115.5 C-98.30602554 112.83668868 -96.54657694 110.17535772 -94.7870636 107.51405334 C-93.60764196 105.72963302 -92.42916637 103.94458704 -91.25163269 102.15892029 C-86.14552342 94.4182138 -80.96843928 86.72779968 -75.75 79.0625 C-75.36156921 78.49132446 -74.97313843 77.92014893 -74.57293701 77.33166504 C-68.87985733 68.96091951 -63.16219535 60.60722104 -57.41162109 52.27587891 C-56.15313375 50.45014358 -54.89833216 48.6219252 -53.64453125 46.79296875 C-48.08006793 38.67773805 -42.48487813 30.58389922 -36.875 22.5 C-36.20509033 21.53247803 -35.53518066 20.56495605 -34.8449707 19.56811523 C-31.91451314 15.35090146 -28.96930475 11.14515267 -25.9375 7 C-25.49277344 6.3915625 -25.04804687 5.783125 -24.58984375 5.15625 C-18.26450353 -2.31434681 -8.9086102 -3.9029864 0 0 Z " fill="#76CCD8" transform="translate(1381.1875,34.5)"/>
<path d="M0 0 C6.36468506 4.84746628 13.2623583 11.10262216 15.23046875 19.171875 C15.82166615 24.93336242 15.4998741 29.21139792 12.23046875 34.171875 C8.75735522 37.88345935 5.02314675 41.00920366 0.91796875 43.984375 C0.28987305 44.44303955 -0.33822266 44.9017041 -0.98535156 45.37426758 C-8.18967485 50.57181794 -15.60611333 55.45851508 -23.02856445 60.3371582 C-28.79814947 64.13937166 -34.42948636 68.07483503 -39.99902344 72.16381836 C-44.8448903 75.67608968 -49.80962887 79.01103215 -54.76953125 82.359375 C-55.94183161 83.1530915 -57.11402828 83.94696115 -58.28613281 84.7409668 C-65.17613209 89.40533231 -72.07710033 94.05337422 -78.98034668 98.69810486 C-82.86096477 101.30922805 -86.74072677 103.92162232 -90.62060547 106.53384399 C-93.47766415 108.45620488 -96.33643371 110.37600164 -99.1953125 112.2956543 C-100.98574216 113.50039157 -102.77610948 114.70522151 -104.56640625 115.91015625 C-105.37688416 116.45326447 -106.18736206 116.99637268 -107.0223999 117.55593872 C-110.77520759 120.08488966 -114.49722255 122.65137817 -118.15722656 125.31323242 C-118.78187805 125.76719894 -119.40652954 126.22116547 -120.05010986 126.68888855 C-121.99794923 128.36888358 -123.39650983 129.99538602 -124.76953125 132.171875 C-124.89470534 135.55157537 -124.82857 137.98420396 -122.49316406 140.60327148 C-117.42148492 144.84798099 -112.00599231 148.37102421 -106.39453125 151.859375 C-104.41244581 153.10627088 -102.43067763 154.3536712 -100.44921875 155.6015625 C-99.47823242 156.2109668 -98.50724609 156.82037109 -97.50683594 157.44824219 C-93.82622125 159.76586078 -90.16856113 162.11742445 -86.51953125 164.484375 C-85.50330688 165.14336792 -85.50330688 165.14336792 -84.46655273 165.81567383 C-82.2330813 167.26600987 -80.00109346 168.71860312 -77.76953125 170.171875 C-76.9276123 170.7198877 -76.08569336 171.26790039 -75.21826172 171.83251953 C-68.1413144 176.44220463 -61.07489867 181.06787251 -54.01287842 185.70037842 C-52.41977403 186.74535607 -50.82653953 187.79013536 -49.23321533 188.83477783 C-43.47319047 192.61151831 -37.71568354 196.39206173 -31.96060181 200.17633057 C-30.02321392 201.44969576 -28.08521995 202.72213935 -26.14657593 203.99359131 C9.25176973 227.21447697 9.25176973 227.21447697 13.23046875 235.171875 C14.18305511 242.7925659 13.49993177 248.48447424 9.1171875 254.859375 C1.90190082 263.70295619 -8.29658884 270.79668539 -19.75390625 272.65625 C-32.33528421 273.54373309 -41.11960282 268.87450708 -52.05371094 263.10742188 C-56.34369462 260.85614071 -60.68488042 258.71032084 -65.02734375 256.5625 C-78.93887756 249.67411089 -92.84305514 242.77287881 -106.54003906 235.46459961 C-111.90418225 232.60569505 -117.32475348 229.87375576 -122.76953125 227.171875 C-129.99187389 223.58539723 -137.15485549 219.90404869 -144.2800293 216.12841797 C-149.7998057 213.20402564 -155.33870078 210.3189833 -160.88745117 207.44995117 C-173.61227418 200.86532935 -186.25441108 194.14755404 -198.76953125 187.171875 C-199.64464355 186.68412598 -200.51975586 186.19637695 -201.42138672 185.69384766 C-231.3207085 168.93977354 -231.3207085 168.93977354 -235.16748047 155.36694336 C-236.31439782 149.28028182 -236.21102895 143.1303436 -236.16064453 136.95825195 C-236.14453726 134.6102511 -236.16057258 132.26396487 -236.1796875 129.91601562 C-236.19635138 118.88737457 -235.52437947 109.87438815 -227.609375 101.6015625 C-214.75189725 90.60107947 -198.61033369 83.03937185 -183.88330078 74.90234375 C-179.98897485 72.73808296 -176.11864989 70.53327577 -172.2487793 68.32568359 C-161.03971505 61.93646796 -149.70201639 55.80358651 -138.31684875 49.73625183 C-131.77999291 46.25252474 -125.2657675 42.73069838 -118.76953125 39.171875 C-107.62555082 33.07296441 -96.42677833 27.07731087 -85.22337341 21.08856201 C-80.32013539 18.46733596 -75.41963471 15.84102941 -70.52027893 13.21255493 C-67.52791033 11.6073789 -64.53471794 10.00378885 -61.53930664 8.40429688 C-56.52901332 5.72795121 -51.5239602 3.04557849 -46.55078125 0.30078125 C-45.39775513 -0.32884521 -45.39775513 -0.32884521 -44.22143555 -0.97119141 C-42.86894094 -1.71048721 -41.52079882 -2.45785272 -40.17895508 -3.21630859 C-26.70094471 -10.53330919 -12.54328806 -8.27963161 0 0 Z " fill="#76CCD8" transform="translate(1540.76953125,189.828125)"/>
<path d="M0 0 C1.63485352 -0.02416992 1.63485352 -0.02416992 3.30273438 -0.04882812 C14.68727176 -0.05559256 24.38334049 1.2767664 32.6484375 9.515625 C42.82733859 21.30865603 49.81705491 35.56099254 57.29541016 49.12548828 C59.48901454 53.08173471 61.7242014 57.01330962 63.96386719 60.94360352 C70.37236329 72.19370472 76.54669633 83.56001532 82.66015625 94.97265625 C85.76529506 100.76862339 88.90645199 106.54413273 92.0625 112.3125 C100.07456476 126.97063378 107.98364825 141.68437643 115.86328125 156.4140625 C116.17944901 157.00483078 116.49561676 157.59559906 116.82136536 158.20426941 C118.40650274 161.16641014 119.99001203 164.12940007 121.57055664 167.09399414 C124.5217678 172.61855292 127.50032834 178.12245186 130.5703125 183.58203125 C131.39281494 185.05397949 131.39281494 185.05397949 132.23193359 186.55566406 C133.2428857 188.35895026 134.26318072 190.1570505 135.29541016 191.94824219 C141.31640142 202.71725174 143.61452415 212.90449746 140.33984375 224.9765625 C136.77507502 234.94556943 129.06069465 244.56362834 120.0625 250.1875 C113.88748874 252.50312922 108.19521524 253.04942036 102.0625 250.3125 C95.41421397 245.70078841 91.11480658 239.56623223 86.75 232.875 C85.43649838 230.90474757 84.12269433 228.93469674 82.80859375 226.96484375 C82.17163574 226.00175293 81.53467773 225.03866211 80.87841797 224.04638672 C78.39903229 220.31364124 75.86139857 216.62296272 73.3125 212.9375 C72.42686062 211.65119498 71.54144133 210.3647384 70.65625 209.078125 C69.79172512 207.82287641 68.92714214 206.56766782 68.0625 205.3125 C64.3908847 199.98255695 60.72340078 194.64980932 57.0625 189.3125 C56.57491211 188.60174316 56.08732422 187.89098633 55.58496094 187.15869141 C48.6453162 177.03265586 41.75947071 166.8708116 34.8984375 156.69140625 C34.25895172 155.74267136 33.61946594 154.79393646 32.96060181 153.81645203 C29.71512187 149.00070823 26.47113957 144.18396269 23.22900391 139.3659668 C22.00684677 137.55126224 20.78467922 135.73656469 19.5625 133.921875 C19.01185883 133.10268082 18.46121765 132.28348663 17.89389038 131.43946838 C16.29018291 129.05915716 14.67703555 126.68547664 13.0625 124.3125 C12.45599609 123.4090686 11.84949219 122.50563721 11.22460938 121.5748291 C10.61423828 120.67905151 10.00386719 119.78327393 9.375 118.86035156 C8.82457031 118.04648987 8.27414062 117.23262817 7.70703125 116.394104 C5.04490645 113.0244571 3.31124629 112.07120469 -0.9375 111.3125 C-8.05409028 114.17094088 -10.85985007 119.08156838 -14.6875 125.5 C-15.91994876 127.50168652 -17.15302789 129.50298504 -18.38671875 131.50390625 C-18.98919434 132.49277832 -19.59166992 133.48165039 -20.21240234 134.50048828 C-22.57740462 138.35558256 -25.03199918 142.14794497 -27.5 145.9375 C-28.33838402 147.22786543 -29.17651243 148.51839697 -30.0144043 149.80908203 C-30.48943893 150.54080124 -30.96447357 151.27252045 -31.4539032 152.02641296 C-32.90470638 154.26196803 -34.35471346 156.49803795 -35.8046875 158.73413086 C-43.33619335 170.34253376 -50.92056815 181.91523501 -58.53930664 193.46655273 C-60.37149929 196.24469191 -62.20241795 199.02366753 -64.03320312 201.80273438 C-67.05309647 206.38569342 -70.08011712 210.96390071 -73.10858154 215.54119873 C-74.98551221 218.38525135 -76.85273551 221.23552097 -78.71923828 224.08642578 C-79.94934983 225.95488063 -81.17964923 227.82321182 -82.41015625 229.69140625 C-82.96295761 230.54073227 -83.51575897 231.39005829 -84.08531189 232.26512146 C-94.43688292 247.92636187 -94.43688292 247.92636187 -102.9375 250.3125 C-110.7270444 251.19196469 -116.33473909 249.14166194 -122.484375 244.3125 C-130.13913903 237.26083859 -137.28642581 226.81845527 -138.2109375 216.16015625 C-138.24445313 214.91105469 -138.27796875 213.66195312 -138.3125 212.375 C-138.38597656 210.53615234 -138.38597656 210.53615234 -138.4609375 208.66015625 C-137.74314441 197.37751229 -129.88012099 186.09034798 -124.75531006 176.2244873 C-122.50726168 171.89664797 -120.27398978 167.56118793 -118.0390625 163.2265625 C-117.59716583 162.37046387 -117.15526917 161.51436523 -116.69998169 160.63232422 C-113.00849976 153.47271082 -109.39354209 146.27794227 -105.8125 139.0625 C-102.02046675 131.43559562 -98.16213385 123.85545055 -94.16113281 116.33618164 C-91.23036628 110.81125946 -88.36253792 105.25593951 -85.515625 99.6875 C-85.11664001 98.90713379 -84.71765503 98.12676758 -84.30657959 97.32275391 C-83.47900093 95.70394032 -82.6514253 94.08512519 -81.82385254 92.46630859 C-74.86389566 78.85758231 -67.79810952 65.33077767 -60.38964844 51.95947266 C-58.77120982 49.00938666 -57.18441647 46.04354394 -55.6015625 43.07421875 C-44.44370224 22.1703416 -44.44370224 22.1703416 -37.9375 13.3125 C-37.30521484 12.39017578 -37.30521484 12.39017578 -36.66015625 11.44921875 C-31.54752055 4.51187131 -24.17594806 2.07171323 -16.0234375 0.70068359 C-10.68161469 0.02872962 -5.37769574 -0.01584471 0 0 Z " fill="#76CCD8" transform="translate(1264.9375,364.6875)"/>
<path d="M0 0 C0.63865997 0.331138 1.27731995 0.662276 1.93533325 1.00344849 C10.96607809 5.68719548 19.93872529 10.46538114 28.85229492 15.36914062 C36.63593931 19.64847564 44.47016772 23.82968446 52.3125 28 C64.69012682 34.58668364 77.02606404 41.24450116 89.3125 48 C90.41916016 48.60811523 91.52582031 49.21623047 92.66601562 49.84277344 C100.62983677 54.22047881 108.58582071 58.61223512 116.53540039 63.01574707 C118.26356582 63.97289763 119.99212873 64.9293304 121.72070312 65.88574219 C132.65771182 71.94420966 143.55950582 78.05680269 154.3125 84.4375 C155.0950415 84.89737305 155.87758301 85.35724609 156.68383789 85.83105469 C166.51543413 91.73150352 178.03120171 98.7468036 180.984375 110.46484375 C182.49194922 116.97473337 182.77414118 123.21353087 182.6875 129.875 C182.67662354 131.01251709 182.66574707 132.15003418 182.65454102 133.32202148 C182.23642103 155.40033479 182.23642103 155.40033479 174.66015625 163.87890625 C163.11884399 174.30641466 148.41395245 180.97188579 134.77734375 188.16455078 C131.43561444 189.93478196 128.10641132 191.7262147 124.78125 193.52734375 C107.07612587 203.10724437 89.17832768 212.29247697 71.25082397 221.44764709 C64.14938161 225.07701705 57.07249783 228.7520832 50 232.4375 C40.23485848 237.52152439 30.409196 242.4733679 20.54931641 247.37084961 C13.94277184 250.65991209 7.39004637 254.03347643 0.875 257.5 C-24.34698553 270.91442649 -24.34698553 270.91442649 -39.58203125 267.31640625 C-50.17765652 263.29507445 -61.09629791 255.87890672 -66.1875 245.5 C-68.42843999 239.66755351 -68.68377068 234.71254177 -66.125 228.875 C-61.82495794 221.38826348 -53.97316587 217.01923936 -46.90625 212.421875 C-45.97510376 211.81039612 -45.04395752 211.19891724 -44.08459473 210.56890869 C-41.12188581 208.62466579 -38.15485428 206.68714379 -35.1875 204.75 C-33.22625939 203.46530636 -31.26531925 202.1801539 -29.3046875 200.89453125 C-26.42924749 199.00910463 -23.55360099 197.12400521 -20.67666626 195.24085999 C-14.65895722 191.30058104 -8.66190754 187.33116182 -2.68258667 183.33293152 C2.74829301 179.70284735 8.21178158 176.12446969 13.6875 172.5625 C14.67226318 171.92127197 15.65702637 171.28004395 16.67163086 170.61938477 C19.55120156 168.74514813 22.43169674 166.87234139 25.3125 165 C26.08384277 164.49823242 26.85518555 163.99646484 27.64990234 163.47949219 C34.43527963 159.06721906 41.23333134 154.67743426 48.07421875 150.3515625 C49.06671631 149.7232251 50.05921387 149.0948877 51.08178711 148.44750977 C53.02487988 147.21869338 54.96962792 145.99248934 56.91625977 144.76928711 C65.00077998 140.09369222 65.00077998 140.09369222 70.8125 133.125 C71.46512505 129.04609344 70.40738415 127.50637708 68.3125 124 C66.34239164 122.06114144 66.34239164 122.06114144 63.89453125 120.47265625 C62.91307129 119.79348145 61.93161133 119.11430664 60.92041016 118.41455078 C59.71869213 117.60832946 58.51596422 116.80361239 57.3125 116 C56.60236755 115.52117371 55.89223511 115.04234741 55.1605835 114.54901123 C50.05188934 111.10449158 44.92365192 107.69005796 39.7880249 104.28585815 C35.08029614 101.16480682 30.37804925 98.03552032 25.67578125 94.90625 C24.76227905 94.29849228 23.84877686 93.69073456 22.90759277 93.06455994 C12.98572866 86.45893297 3.13088888 79.75842745 -6.6875 73 C-8.11967137 72.01675184 -9.55196061 71.03367533 -10.984375 70.05078125 C-14.26331464 67.79973087 -17.53950728 65.54472102 -20.81494141 63.28857422 C-23.3149581 61.56822375 -25.8181725 59.85255442 -28.32128906 58.13671875 C-30.27760286 56.79354836 -32.23069801 55.4457904 -34.18359375 54.09765625 C-37.64236909 51.71166463 -41.1185368 49.35230812 -44.59765625 46.99609375 C-46.66947622 45.58102983 -48.74109155 44.16566624 -50.8125 42.75 C-52.28891968 41.75770386 -52.28891968 41.75770386 -53.79516602 40.74536133 C-66.30157999 32.15776003 -66.30157999 32.15776003 -68.6875 25 C-69.39468276 18.18073762 -69.47945958 12.4958791 -65.28125 6.86328125 C-64.49234375 5.94095703 -64.49234375 5.94095703 -63.6875 5 C-63.1409375 4.33355469 -62.594375 3.66710937 -62.03125 2.98046875 C-42.43546793 -18.73265418 -22.26216581 -11.57754334 0 0 Z " fill="#76CCD8" transform="translate(1033.6875,194)"/>
<path d="M0 0 C11.08677555 -0.24101686 26.13658157 -0.10985335 36.1875 5.125 C37.31443176 8.50579529 37.04026636 9.61873238 36.21533203 13.0078125 C35.97823517 13.99894043 35.74113831 14.99006836 35.49685669 16.01123047 C35.10009232 17.61442139 35.10009232 17.61442139 34.6953125 19.25 C34.29721878 20.89766357 34.29721878 20.89766357 33.89108276 22.57861328 C33.03913407 26.09596616 32.1757902 29.61041554 31.3125 33.125 C30.73756664 35.4946184 30.16333904 37.86440815 29.58984375 40.234375 C28.53683619 44.57132594 27.48284336 48.90801375 26.41845703 53.2421875 C26.20448273 54.11472168 25.99050842 54.98725586 25.77005005 55.88623047 C25.31067383 57.65163669 24.76436096 59.39441713 24.1875 61.125 C23.46304687 60.99222656 22.73859375 60.85945313 21.9921875 60.72265625 C21.02539062 60.54605469 20.05859375 60.36945313 19.0625 60.1875 C18.11117188 60.01347656 17.15984375 59.83945313 16.1796875 59.66015625 C15.19226562 59.48355469 14.20484375 59.30695313 13.1875 59.125 C12.25357422 58.95387695 11.31964844 58.78275391 10.35742188 58.60644531 C-12.46463908 55.14024813 -35.74232664 59.19003241 -54.9296875 72.24609375 C-57.32116948 74.12308776 -59.58837714 76.05395442 -61.8125 78.125 C-62.67875 78.929375 -63.545 79.73375 -64.4375 80.5625 C-65.22125 81.408125 -66.005 82.25375 -66.8125 83.125 C-67.39257812 83.71152344 -67.97265625 84.29804687 -68.5703125 84.90234375 C-87.61566521 104.95597984 -93.2750751 130.64862501 -93.24487305 157.47680664 C-93.25391966 159.13447282 -93.26425381 160.79213238 -93.27575684 162.44978333 C-93.30301318 166.89080213 -93.31256799 171.33169298 -93.31861091 175.77278447 C-93.32807748 180.43592978 -93.3542866 185.09898252 -93.37861633 189.7620697 C-93.42205945 198.56589439 -93.45074199 207.36970088 -93.47393972 216.17359966 C-93.50111129 226.20771428 -93.54501474 236.24173474 -93.59022844 246.27578175 C-93.68275647 266.89215018 -93.75237425 287.50850985 -93.8125 308.125 C-113.2825 308.125 -132.7525 308.125 -152.8125 308.125 C-153.1425 208.135 -153.4725 108.145 -153.8125 5.125 C-135.0025 5.125 -116.1925 5.125 -96.8125 5.125 C-95.875 25.375 -95.875 25.375 -95.58618164 31.75097656 C-95.50699312 33.42254123 -95.42750496 35.09409174 -95.34765625 36.765625 C-95.30958862 37.6304248 -95.271521 38.49522461 -95.2322998 39.38623047 C-95.19181519 40.21815918 -95.15133057 41.05008789 -95.10961914 41.90722656 C-95.07630997 42.62670471 -95.04300079 43.34618286 -95.00868225 44.08746338 C-94.80712538 46.18082045 -94.37369774 48.10091017 -93.8125 50.125 C-93.12027344 49.23361328 -93.12027344 49.23361328 -92.4140625 48.32421875 C-71.80505702 22.13530467 -45.07104894 4.85601713 -11.64453125 0.734375 C-7.76508383 0.35295456 -3.89319039 0.17303068 0 0 Z " fill="#241F59" transform="translate(1145.8125,1399.875)"/>
<path d="M0 0 C0 95.04 0 190.08 0 288 C-19.47 288 -38.94 288 -59 288 C-59 193.29 -59 98.58 -59 1 C-49 2 -49 2 -45.73193359 2.54980469 C-29.8662738 5.16430662 -15.32089997 0 0 0 Z " fill="#241F59" transform="translate(1291,1420)"/>
<path d="M0 0 C0.8765625 -0.01160156 1.753125 -0.02320313 2.65625 -0.03515625 C8.58707118 -0.00836037 12.99379606 0.54568908 17.50195312 4.78857422 C21.72391167 9.38393075 24.6018822 14.63574724 27.5 20.125 C28.00772949 21.07093018 28.51545898 22.01686035 29.03857422 22.99145508 C34.34723537 32.92526914 39.51391929 42.93466752 44.67578125 52.9453125 C47.11860956 57.68025478 49.58579197 62.40111842 52.08007812 67.10913086 C53.66933373 70.11165279 55.2435048 73.12197541 56.81787109 76.13232422 C57.63619826 77.68481356 58.4625981 79.23306454 59.29541016 80.77783203 C60.58855659 83.17678875 61.85822572 85.58703692 63.125 88 C63.71148315 89.06553101 63.71148315 89.06553101 64.30981445 90.15258789 C67.45022065 96.22261078 68.12995407 101.67515039 66.1171875 108.265625 C63.01166167 114.16417091 60.11051982 118.31974009 54 121.375 C49.38802988 121.81845867 46.42991987 121.54569841 42.61096191 118.83853149 C39.19601157 115.7361072 36.89044771 111.74815008 34.421875 107.88671875 C33.50465668 106.48363213 33.50465668 106.48363213 32.56890869 105.05220032 C30.61808783 102.06274022 28.68375101 99.06302332 26.75 96.0625 C25.46594796 94.0871724 24.18080165 92.11255567 22.89453125 90.13867188 C21.63281114 88.20052172 20.37109237 86.26237069 19.109375 84.32421875 C18.49525757 83.38117889 17.88114014 82.43813904 17.24841309 81.46652222 C14.47111004 77.19657974 11.70727177 72.92039477 8.99023438 68.61181641 C8.10301049 67.22679454 7.21565126 65.84185937 6.328125 64.45703125 C5.94138611 63.8288298 5.55464722 63.20062836 5.15618896 62.5533905 C3.9821888 60.6661396 3.9821888 60.6661396 2 58.375 C-1.85503481 57.90829387 -1.85503481 57.90829387 -3.41856384 59.76570129 C-3.85012283 60.41898911 -4.28168182 61.07227692 -4.72631836 61.74536133 C-5.22461655 62.48486526 -5.72291473 63.2243692 -6.23631287 63.98628235 C-7.03006065 65.20930305 -7.03006065 65.20930305 -7.83984375 66.45703125 C-8.40264542 67.29981125 -8.96544708 68.14259125 -9.54530334 69.01091003 C-11.35576814 71.7280204 -13.14695744 74.45722982 -14.9375 77.1875 C-16.1087338 78.9546332 -17.28124714 80.72091905 -18.45507812 82.48632812 C-20.79978193 86.01527025 -23.14268614 89.54539293 -25.48388672 93.07666016 C-26.06305847 93.94921448 -26.64223022 94.8217688 -27.23895264 95.72076416 C-28.42356863 97.50620746 -29.60668953 99.29264354 -30.78839111 101.08001709 C-32.5175021 103.68866694 -34.25904761 106.28858381 -36.00390625 108.88671875 C-36.51928452 109.66908401 -37.03466278 110.45144928 -37.56565857 111.25752258 C-40.61282153 115.76578284 -43.5282381 119.23345788 -48 122.375 C-51.75640265 122.90221441 -54.06514666 122.76262212 -57.5625 121.3125 C-62.57950355 117.32462538 -67.32082504 112.34349751 -68.43261719 105.84716797 C-68.79894678 96.69362465 -65.63358521 90.33792335 -61.25 82.5 C-60.55786401 81.21968982 -59.86795212 79.93817501 -59.18017578 78.65551758 C-57.46321684 75.46654649 -55.71903709 72.29350573 -53.96520996 69.12469482 C-52.55715179 66.57222211 -51.17307039 64.00698111 -49.7890625 61.44140625 C-47.86632656 57.88491701 -45.92865261 54.33733412 -43.9765625 50.796875 C-41.84322008 46.92403799 -39.73818035 43.03716216 -37.6484375 39.140625 C-16.52913208 -0.21876792 -16.52913208 -0.21876792 0 0 Z " fill="#241F59" transform="translate(1262,1241.625)"/>
</svg>
